<?xml version="1.0" encoding="UTF-8" standalone="no"?>
<!-- Traced from the Gemini stamp in merch/stamps/ (speckles < 120 px removed). Red ink only, gaps are holes. -->
<svg
   width="1822"
   height="1821"
   viewBox="0 0 1822 1821"
   version="1.1"
   id="svg1"
   xmlns:xlink="http://www.w3.org/1999/xlink"
   xmlns="http://www.w3.org/2000/svg"
   xmlns:svg="http://www.w3.org/2000/svg">
  <defs
     id="defs1" />
  
  <path
     style="fill:#d4000c"
     d="m 345.70624,1820.3729 c -0.3449,-0.3449 -13.8074,-0.609 -29.91667,-0.587 -18.78275,0.026 -29.73797,-0.3313 -30.53957,-0.9953 -0.6875,-0.5695 -1.25,-1.8549 -1.25,-2.8563 0,-2.2467 -3.66156,-4.9343 -6.72251,-4.9343 -2.70008,0 -2.8311,0.7646 -0.66176,3.8618 1.19517,1.7063 1.32341,2.5991 0.49268,3.4298 -0.83073,0.8307 -2.48766,0.4143 -6.36573,-1.5999 -6.20895,-3.2248 -9.28113,-3.4226 -10.74268,-0.6917 -0.89967,1.6811 -2.09382,2 -7.48813,2 -3.52977,0 -7.57609,-0.5278 -8.99182,-1.1728 -2.13892,-0.9746 -3.457,-0.8116 -7.79706,0.964 -5.04968,2.066 -6.60009,2.136 -46.72299,2.1097 -31.54011,-0.021 -42.21999,-0.3358 -44.5,-1.3128 -2.48089,-1.0632 -3.84714,-1.038 -7.89573,0.1452 -3.80474,1.1119 -5.85227,1.1899 -9.18806,0.3499 -2.69592,-0.6788 -5.1805,-0.7431 -6.68041,-0.1729 -4.647,1.7668 -26.947768,-1.704 -34.978703,-5.4439 -2.891404,-1.3465 -6.677768,-2.7195 -8.414143,-3.0512 -1.736375,-0.3316 -4.833839,-2.1388 -6.883253,-4.016 -2.917351,-2.6722 -4.8838,-3.5491 -9.05895,-4.0398 -3.307002,-0.3887 -5.974337,-1.3357 -7.021734,-2.4931 C 53.450071,1798.8398 51.94396,1798 51.032104,1798 c -2.269842,0 -7.306336,-5.4421 -7.614226,-8.2274 -0.138166,-1.2499 -0.295602,-2.4976 -0.349857,-2.7726 -0.05426,-0.275 -0.552393,0.175 -1.106971,1 -0.84748,1.2607 -1.40675,1.0214 -3.506015,-1.5 -1.373729,-1.65 -2.754445,-3.9829 -3.068258,-5.1842 -0.313813,-1.2013 -1.820956,-2.6201 -3.349207,-3.1529 -1.528252,-0.5327 -3.72601,-1.9855 -4.883907,-3.2283 -3.01491,-3.2362 -9.1517,-16.4094 -9.164487,-19.6725 -0.01457,-3.7186 -2.262773,-10.8938 -5.283189,-16.8615 -3.1867102,-6.2963 -3.97242,-10.5575 -4.2730199,-23.1741 C 8.2983416,1709.576 7.651318,1702.715 6.9951369,1699.9797 6.1129862,1696.3025 6.088465,1694.185 6.9010401,1691.854 7.5054681,1690.1202 8,1687.4307 8,1685.8775 c 0,-1.5532 0.9827094,-4.8467 2.183799,-7.3189 2.132282,-4.3889 2.139954,-4.5434 0.325218,-6.5486 -1.7180036,-1.8984 -1.7427807,-2.2979 -0.32758,-5.2819 1.463576,-3.0859 1.409242,-3.423 -1.2337437,-7.6536 -2.0485543,-3.2791 -2.5522095,-4.9845 -1.9442834,-6.5835 0.4512541,-1.1869 0.4619929,-2.738 0.023864,-3.4469 -1.5020518,-2.4303 -1.1660231,-23.1834 0.4144366,-25.5955 1.3183336,-2.012 1.2314803,-2.407 -0.9877289,-4.4918 -2.3931232,-2.2483 -2.4270095,-2.5177 -2.0592382,-16.3713 0.2056584,-7.747 0.7026538,-15.5521 1.1044341,-17.3447 0.4313473,-1.9244 0.3003804,-3.7774 -0.3198016,-4.5247 -1.9172901,-2.3102 -2.2163389,-25.2919 -0.4697142,-36.0973 1.2570695,-7.7768 1.3515841,-10.5605 0.4437876,-13.071 C 4.5190522,1529.7934 4,1526.1175 4,1523.379 c 0,-2.7384 -0.4846476,-5.4636 -1.0769948,-6.056 -0.7693263,-0.7693 -0.7463962,-2.1834 0.080267,-4.95 0.7253594,-2.4276 0.9467987,-7.4185 0.5933359,-13.373 -0.3101595,-5.225 -0.5487797,-10.9625 -0.5302673,-12.75 0.1187847,-11.4695 0.00168,-23.1373 -0.4892841,-48.75 -0.5634501,-29.3942 -0.6624223,-51.5264 -0.2848568,-63.6999 0.1970896,-6.3546 0.4010809,-6.8769 3.9577999,-10.1349 4.284885,-3.9249 4.836384,-7.325 1.8670822,-11.5108 -6.375559,-8.9877 -6.117584,-7.1508 -6.0998241,-43.4339 0.00894,-18.2713 0.2809298,-37.0455 0.6044142,-41.7205 0.3234843,-4.675 0.5660526,-10.3 0.5390406,-12.5 -0.027012,-2.2 -0.013521,-6.7 0.02998,-10 0.043501,-3.3 -0.027188,-7.575 -0.1570871,-9.5 -0.129899,-1.925 -0.185438,-6.2 -0.1234199,-9.5 0.062018,-3.3 0.2200972,-13.2748 0.351287,-22.1663 0.1311897,-8.8914 0.5401526,-16.4681 0.9088064,-16.8369 0.3686539,-0.3689 0.00424,-2.9135 -0.8098185,-5.6547 -1.2484748,-4.2041 -1.3028047,-7.0993 -0.3471736,-18.5006 0.6231085,-7.4341 0.8390183,-15.3897 0.4797996,-17.6791 -0.3592187,-2.2893 -0.844459,-5.3768 -1.0783118,-6.861 -0.2338527,-1.4842 -0.8616359,-3.8465 -1.3950736,-5.2496 -0.58956363,-1.5507 -0.70642138,-9.5115 -0.29800653,-20.3014 C 1.0912293,1102.4877 1.3506001,1092.025 1.2980747,1089 c -0.098384,-5.6661 -0.1634012,-8.8799 -0.35403071,-17.5 -0.060815,-2.75 -0.0888206,-8.0375 -0.0622348,-11.75 0.0846394,-11.8192 0.11327588,-19.6414 0.0860321,-23.5 -0.0145623,-2.0625 0.15377321,-28.275 0.37407901,-58.25 0.2984139,-40.60247 0.7289796,-55.5845 1.688489,-58.75295 0.9946062,-3.28434 1.0230238,-4.83436 0.1247755,-6.8058 -2.51479972,-5.51939 -3.87188114,-43.85456 -1.6781262,-47.40413 0.2324837,-0.37617 0.5196656,-13.1736 0.6381821,-28.43874 l 0.2154846,-27.75479 2.8537614,-4.3084 c 1.5695688,-2.36962 4.2123532,-4.87114 5.8728543,-5.55894 C 14.799929,797.42602 16,795.2761 16,790.12151 c 0,-2.79935 -0.729442,-4.85706 -2.416121,-6.81575 L 11.167759,780.5 8.4989301,783 5.8301015,785.5 3.9150507,783.13922 C 1.7528639,780.47377 1.4554524,775.86054 3.1351613,771.04212 4.0067776,768.5418 3.9632769,766.47571 2.947792,762.1429 1.7018366,756.82673 1.0438335,735.14588 0.9859115,697.5 c -0.0118472,-7.7 -0.046255,-16.25 -0.0764616,-19 -0.0302066,-2.75 0.0155228,-21.2 0.10162089,-41 0.086098,-19.8 0.1598544,-39.375 0.1639028,-43.5 0.00405,-4.125 0.043293,-10.2 0.087211,-13.5 0.1128803,-8.48196 0.130298,-16.5887 0.076273,-35.5 -0.025925,-9.075 -0.00697,-20.325 0.042113,-25 0.049087,-4.675 0.00826,-16.15 -0.09073,-25.5 -0.098989,-9.35 -0.2004376,-19.7 -0.2254423,-23 -0.025005,-3.3 -0.0938681,-9.6 -0.15302974,-14 -0.0591616,-4.4 -0.10507495,-10.475 -0.10202964,-13.5 0.0177636,-17.6451 0.002715,-22.45483 -0.0985557,-31.5 -0.0615787,-5.5 -0.0341964,-11.9125 0.0608496,-14.25 0.23838014,-5.86257 0.29749824,-8.92717 0.36169974,-18.75 0.1218156,-18.63778 0.1181057,-23.23968 -0.023379,-29 -0.081054,-3.3 -0.12042392,-7.35 -0.087488,-9 C 1.0554025,339.85 0.9782835,331.075 0.85109085,322 0.56510421,301.59529 1.794344,279.85405 3.4616268,275.82814 c 0.380809,-0.91952 0.1757461,-2.6372 -0.4556954,-3.81706 -0.9037685,-1.6887 -0.8297308,-2.63105 0.3479264,-4.42838 1.0103741,-1.54203 1.3157369,-3.62717 0.9406863,-6.42338 -0.3406842,-2.53999 -0.091597,-4.69893 0.6444641,-5.58583 0.7900544,-0.95196 0.8869728,-2.0651 0.2838018,-3.25957 -0.5092391,-1.00845 -0.8520515,-16.69075 -0.7720154,-35.31662 0.1327286,-30.88838 0.2912204,-33.75198 2.0310889,-36.69734 1.6044342,-2.7161 1.7024446,-3.59999 0.654273,-5.90047 -0.6780695,-1.4882 -1.2221448,-5.6744 -1.2090563,-9.30266 C 5.9401888,161.46858 5.6630116,153.775 5.3111509,148 4.3528648,132.27189 4.5318809,116.46725 5.7698866,107.5 8.4467427,88.110719 11.853803,75.150889 15.374135,70.967213 16.818361,69.250848 18,66.927983 18,65.80529 c 0,-1.122693 1.35,-3.578825 3,-5.458071 1.65,-1.879246 3,-4.469474 3,-5.756062 0,-1.286588 1.141938,-4.382401 2.537641,-6.879585 C 29.37667,42.631998 42.215071,30 44.538616,30 c 1.774917,0 8.444761,-4.070118 10.266021,-6.264602 0.701402,-0.845138 4.519796,-2.530699 8.48532,-3.745692 3.965524,-1.214993 7.991437,-2.609719 8.946474,-3.099392 0.955037,-0.489673 2.755037,-0.890375 4,-0.89045 1.244963,-7.5e-5 5.710736,-1.063772 9.92394,-2.363772 7.348997,-2.267561 8.425888,-2.333821 26.493409,-1.630102 18.77753,0.731372 24.01692,0.172045 27.80019,-2.9677844 0.63249,-0.5249208 19.0916,-1.1870595 42.08633,-1.50966 54.62579,-0.7663631 63.54447,-0.7656036 72.9597,0.00621 4.60231,0.3772761 10.12356,0.2038563 13,-0.4083244 4.37834,-0.9318222 38.31814,-1.4966389 81,-1.3479794 7.15,0.024903 37.525,-0.1932363 67.5,-0.4847546 29.975,-0.2915182 67.325,-0.4820635 83,-0.4234339 15.675,0.05863 30.3,0.040361 32.5,-0.040597 3.67177,-0.1351178 49.06021,-0.176185 56,-0.050668 1.65,0.029843 23.20656,-0.093177 47.90346,-0.2733782 24.6969,-0.1802007 45.83546,0.017131 46.97456,0.4385142 1.23869,0.4582199 3.44577,0.1917811 5.49135,-0.6629149 2.4699,-1.0319896 4.83875,-1.2096406 8.52543,-0.63936 2.80786,0.4343387 16.8052,0.859313 31.1052,0.9443873 14.3,0.085074 28.49783,0.486259 31.55074,0.8915215 3.93464,0.5223095 6.84614,0.3075391 10,-0.7376614 3.68694,-1.2218667 11.07769,-1.4184829 43.13593,-1.1475455 21.27767,0.1798263 42.65267,-0.037279 47.5,-0.4824572 7.37528,-0.6773437 9.36181,-0.535528 12.17479,0.8691403 3.16315,1.579525 3.68119,1.5730754 8.78087,-0.1093213 4.53881,-1.497362 7.98429,-1.7231804 21.20415,-1.3897284 8.68161,0.218981 17.83761,0.915065 20.34667,1.5468535 3.47351,0.8746402 8.94535,0.8473187 22.93439,-0.1145141 24.10475,-1.6573508 130.06526,-2.1132537 134.66266,-0.5793963 2.4115,0.8045337 3.7723,0.7966616 5.0952,-0.029474 2.9225,-1.8251596 15.7504,-1.3887152 20.6274,0.7018092 2.3468,1.0059527 4.568,2.3162469 4.9361,2.9117647 C 1111.8169,7.5127581 1113.3717,8 1114.904,8 c 1.5323,0 3.6005,0.9 4.596,2 3.2506,3.5919 6.9738,2.592874 12.7724,-3.4272062 5.668,-5.88437498 6.4731,-6.24379528 11.7276,-5.2349782 3.5491,0.6814099 30.8289,1.9496967 34.5,1.6039695 3.47,-0.3267874 33.5327,-0.4525543 45,-0.1882565 15.0473,0.3468105 64.7003,0.2808909 98,-0.1301053 5.5,-0.067883 16.525,0.026721 24.5,0.2102316 16.5211,0.3801619 34.8582,0.4479443 70,0.2587518 13.475,-0.072545 28.325,-0.1418457 33,-0.154001 4.675,-0.012155 17.725,-0.082976 29,-0.1573791 11.275,-0.074403 22.6375,-0.058456 25.25,0.035437 5.3552,0.1924658 12.3991,0.2687557 16.5,0.178704 8.9879,-0.1973665 30.0853,1.2286971 31.9191,2.1575515 1.7686,0.8958092 2.7477,0.6866592 5.3029,-1.1327687 2.3026,-1.6395825 3.9817,-2.0814211 6.3309,-1.6658536 5.1925,0.9185673 18.9334,1.0621364 22.4877,0.2349585 2.3881,-0.5557597 3.9778,-0.3156207 5.7956,0.8754833 1.5867,1.0396559 3.313,1.3835621 4.7094,0.9381831 3.38,-1.0780952 26.9722,-1.2645877 28.9718,-0.229018 1.2146,0.6290197 2.4571,0.4322211 3.9725,-0.629199 2.4697,-1.7298604 10.562,-1.9673488 17.7601,-0.5212189 11.257,2.261564 16.5835,3.5310912 17.6046,4.1958937 0.6076,0.3955488 2.095,-0.3349419 3.3053,-1.6233126 2.1104,-2.2463696 2.6806,-2.3268132 13.8954,-1.9603945 18.2938,0.5977081 24.1549,0.9913491 24.8312,1.667715 0.3446,0.3445447 1.5167,0.1500072 2.6048,-0.4323054 1.4632,-0.7830904 3.0562,-0.6636063 6.1185,0.4589127 2.2771,0.8347146 5.7152,1.8110536 7.6402,2.169642 1.925,0.3585885 5.4076,1.5179105 7.7391,2.5762711 2.4091,1.093562 6.4413,1.924292 9.3402,1.924292 4.4163,0 5.4546,0.402772 7.7336,3 2.0062,2.286268 3.4857,3 6.2187,3 1.9724,0 4.4596,0.660688 5.5273,1.468197 1.0676,0.807508 3.2911,1.496819 4.9411,1.531803 1.65,0.03498 3.8735,0.724295 4.9411,1.531803 1.0677,0.807509 2.6002,1.468197 3.4056,1.468197 4.3082,0 10.8683,8.201508 11.3602,14.202491 0.1218,1.48637 0.4079,2.516089 0.6357,2.288265 0.8405,-0.840476 9.2334,6.868882 8.7759,8.061133 -0.2607,0.679363 0.5823,2.227558 1.8733,3.440435 1.2911,1.212876 2.7708,3.39828 3.2883,4.856453 2.4656,6.947463 3.3007,10.211547 2.8139,10.999165 -0.2922,0.472781 0.5132,1.335505 1.7898,1.917163 1.8225,0.830364 2.5852,2.399981 3.5505,7.306267 0.6761,3.436788 1.9381,7.33041 2.8043,8.652493 1.1984,1.828973 1.6273,5.556984 1.7933,15.589965 0.1201,7.25239 -0.1746,13.68125 -0.6549,14.28634 -0.5215,0.65711 -0.2327,2.38409 0.7172,4.28824 0.8754,1.7548 1.2783,3.95762 0.8962,4.89983 -0.6224,1.53486 -1.7229,19.15967 -1.5633,25.03807 0.035,1.27948 -0.6611,3.05053 -1.5462,3.93567 -1.4792,1.47914 -1.4482,1.66897 0.3824,2.34617 1.7495,0.64718 2.01,1.73648 2.1412,8.95334 0.082,4.51909 0.4658,8.71647 0.8527,9.32752 1.1159,1.76257 1.3578,11.85446 1.2688,52.93922 -0.01,3.20553 0.4735,6.73655 1.0676,7.84671 0.6113,1.14217 0.8554,4.47282 0.5623,7.67177 -1.1727,12.80012 -0.1165,57.08287 1.3979,58.60329 1.2112,1.21605 1.2231,4.86601 0.02,6.1 -1.0837,1.11143 -1.2587,7.18872 -1.1757,40.8284 0.034,13.68312 -0.1745,25.25995 -0.4627,25.72629 -0.2882,0.46633 0.1188,2.07476 0.9045,3.57427 1.2008,2.2919 1.2198,3.31786 0.119,6.43795 -1.0068,2.85334 -1.0648,5.06097 -0.2511,9.54733 0.8915,4.91548 1.3471,14.54287 1.0807,22.83576 -0.035,1.1 0.1218,26.075 0.3493,55.5 0.2421,31.32665 0,57.67872 -0.5778,63.58244 -0.6207,6.31353 -0.6429,11.35997 -0.059,13.5 1.6467,6.03914 1.9426,16.15015 0.7795,26.63849 -0.8679,7.82671 -0.8471,12.40965 0.089,19.56458 0.9028,6.90031 0.9388,10.60926 0.1378,14.18349 -0.7982,3.56186 -0.775,6.31737 0.088,10.43542 1.3839,6.60462 1.468,30.58789 0.1307,37.25866 -0.5663,2.82501 -0.5787,6.56967 -0.031,9.5 0.4969,2.66031 0.8734,5.62442 0.8368,6.58692 -0.037,0.9625 -0.024,2.9875 0.027,4.5 0.5867,17.1357 -0.073,118.21122 -0.801,122.75 -0.7039,4.38805 -0.5925,8.14927 0.4147,14 0.7575,4.4 1.3362,13.4 1.2861,20 -0.05,6.6 0.1863,15.15 0.5253,19 0.5806,6.59344 0.7474,10.87895 0.5352,13.75 -0.051,0.6875 0.2003,3.32161 0.558,5.85357 0.4243,3.00294 0.2037,5.43681 -0.6344,7 -0.8171,1.52383 -1.2064,5.49149 -1.0694,10.89643 0.1497,5.90562 -0.202,9.07044 -1.1523,10.36895 -2.1863,2.98746 -1.3022,18.57067 1.3483,23.76609 2.143,4.2006 2.1718,5.62907 0.3565,17.70166 -0.4067,2.70516 -0.2332,4.75554 0.4613,5.45 1.3924,1.39245 1.4067,11.73224 0.024,17.7133 -0.572,2.475 -1.1667,7.875 -1.3216,12 -0.1549,4.125 -0.7714,8.6892 -1.37,10.14266 -0.8296,2.01434 -0.7342,3.79753 0.4014,7.5 1.5478,5.04654 1.4619,7.58964 -0.6135,18.15184 -1.109,5.644 -1.0574,6.4928 0.4993,8.2129 1.5067,1.6649 1.6349,3.0791 0.9703,10.7055 -0.4211,4.8329 -0.6861,10.8121 -0.5888,13.2871 0.097,2.475 -0.2786,6.04 -0.8353,7.9222 -0.5566,1.8821 -0.6445,3.9071 -0.1952,4.5 1.2386,1.6343 0.4335,33.1651 -0.9109,35.6772 -0.9393,1.7552 -0.7791,2.6361 0.8901,4.8938 1.7798,2.4074 2.0942,4.6748 2.5019,18.044 0.3413,11.1918 0.09,16.7341 -0.9362,20.6755 -0.7714,2.9617 -1.4026,6.2853 -1.4026,7.3858 0,1.1004 -0.6887,3.3325 -1.5304,4.9602 -1.1872,2.2958 -1.2785,3.4299 -0.4073,5.0577 1.4729,2.7521 -0.088,4.4754 -2.7588,3.046 -1.1804,-0.6317 -2.4642,-0.673 -3.3574,-0.1079 -1.1935,0.7551 -1.1389,0.9175 0.313,0.9302 0.9675,0.01 3.0949,1.2919 4.7276,2.8522 2.8865,2.7585 2.951,3.0278 2.3347,9.75 -0.5369,5.8555 -1.1307,7.4971 -3.8813,10.7306 -4.7427,5.5751 -6.413,11.3285 -4.8378,16.6635 0.6863,2.3241 2.1815,4.8797 3.3227,5.679 1.1413,0.7994 2.075,2.0871 2.075,2.8615 0,0.7745 0.864,1.8705 1.9199,2.4356 1.056,0.5652 2.467,2.6851 3.1356,4.7109 2.3666,7.1711 1.3974,35.6399 -1.397,41.0323 -0.9122,1.7602 -1.6585,4.7712 -1.6585,6.691 0,1.9199 -0.4274,3.7548 -0.9498,4.0777 -0.5401,0.3338 -0.056,2.1008 1.121,4.0966 1.9163,3.2478 1.9498,3.6432 0.4498,5.3007 -0.8916,0.9852 -1.6279,2.8807 -1.6363,4.2124 -0.01,1.3317 -0.4377,3.0893 -0.954,3.9058 -0.6589,1.0421 -0.3734,2.0863 0.9579,3.5034 1.4094,1.5002 2.0121,3.9741 2.3464,9.6301 0.2473,4.1862 0.985,8.6114 1.6392,9.8338 0.7826,1.4622 0.942,3.9889 0.4659,7.3854 -0.3979,2.8395 -0.7723,9.2564 -0.8318,14.2596 -0.071,5.9192 -0.5692,9.652 -1.4277,10.6861 -1.0373,1.2495 -1.0665,2.0618 -0.1365,3.7994 1.1794,2.2039 2.2936,10.1744 2.0852,14.9177 -0.2955,6.7282 -1.401,14 -2.1282,14 -0.4476,0 -0.596,0.8329 -0.3298,1.8509 0.2662,1.018 -0.274,2.6089 -1.2004,3.5353 -1.4502,1.4502 -1.5083,2.1093 -0.418,4.7414 0.7372,1.7798 0.8862,3.3319 0.3567,3.7148 -1.4188,1.0257 -1.0281,16.2771 0.5034,19.6576 1.6825,3.7135 1.6073,6.6435 -0.2049,7.9807 -2.2038,1.6262 -3.8617,5.3063 -2.7108,6.0176 1.4757,0.912 1.2199,5.0766 -0.3941,6.416 -0.7682,0.6376 -1.1798,1.9888 -0.9146,3.0027 0.2651,1.014 -0.3882,3.5398 -1.4519,5.6131 -1.7088,3.3308 -1.7741,4.09 -0.5607,6.5222 0.7552,1.5139 2.0371,3.0074 2.8486,3.3188 0.8399,0.3223 1.4754,1.8388 1.4754,3.5208 0,1.6981 1.0706,4.2269 2.5173,5.9463 2.2027,2.6178 2.3696,3.3159 1.3352,5.5863 -0.8944,1.9628 -0.9052,3.4972 -0.044,6.3018 0.922,3.0042 0.8584,4.1337 -0.3352,5.9553 -0.8101,1.2364 -1.4729,2.8822 -1.4729,3.6573 0,0.775 -1.1978,3.5522 -2.6617,6.1715 -2.2442,4.0153 -2.6499,5.9238 -2.587,12.1686 0.041,4.0735 0.5939,8.032 1.2286,8.7968 0.8893,1.0715 0.7481,2.0096 -0.6155,4.0908 -0.9732,1.4853 -1.6706,3.9979 -1.5498,5.5835 0.1208,1.5856 -0.4089,4.113 -1.1771,5.6164 -1.9472,3.8107 -0.5754,6.7144 4.3622,9.2334 4.1607,2.1226 6.3067,5.0646 4.2052,5.7651 -0.6352,0.2118 -1.4833,0.3325 -1.8847,0.2682 -1.1478,-0.1836 -3.3375,12.0499 -2.6483,14.7959 0.3858,1.5371 0.2409,2.235 -0.3841,1.8488 -0.5521,-0.3412 -1.8335,0.9203 -2.8476,2.8033 -1.2733,2.3644 -2.4765,3.3611 -3.8888,3.2213 -3.5598,-0.3525 -3.1298,3.8038 0.8779,8.486 1.9639,2.2943 3.5707,4.5148 3.5707,4.9343 0,1.5527 -4.1409,7.7173 -5.5461,8.2565 -2.3517,0.9024 -1.6658,2.6207 1.0461,2.6207 1.942,0 2.5,0.5133 2.5,2.3 0,1.265 0.4648,2.7648 1.0328,3.3328 1.6041,1.6041 0.01,4.3672 -2.5232,4.3672 -1.6377,0 -2.4113,0.7057 -2.7572,2.515 -0.3969,2.0761 -0.024,2.6143 2.1334,3.0836 5.3626,1.1661 5.4006,1.224 2.9416,4.4765 -1.2801,1.6931 -3.3399,4.1079 -4.5774,5.3663 -2.9118,2.9609 -2.8381,4.6978 0.334,7.8699 2.6131,2.6131 2.6899,6.6887 0.1261,6.6887 -0.6353,0 -0.155,0.7005 1.0674,1.5567 1.565,1.0962 2.2225,2.5754 2.2225,5 0,2.8947 -0.3585,3.4484 -2.25,3.4751 -1.2375,0.017 -3.1235,0.6925 -4.1911,1.5 -2.4622,1.8623 -3.5589,1.8621 -3.5589,-4e-4 0,-0.8946 -0.5863,-1.2437 -1.5,-0.893 -2.0932,0.8032 -1.8697,2.6496 0.5,4.1295 1.1,0.687 2,1.8721 2,2.6336 0,1.6099 2.6896,2.9097 3.4557,1.6701 0.2859,-0.4625 1.9678,-1.0535 3.7376,-1.3133 2.4264,-0.3561 3.6509,0.046 4.979,1.6347 2.2994,2.7509 2.2698,4.3 -0.1066,5.5718 -2.5012,1.3387 -2.6353,1.3227 -4.4923,-0.5343 -1.426,-1.426 -1.8211,-1.3922 -4.3215,0.3688 -1.5135,1.0661 -3.7644,2.2527 -5.0019,2.6369 -1.378,0.4278 -2.25,1.496 -2.25,2.7562 0,2.0975 0.1898,2.1142 7.0625,0.6201 0.7906,-0.1719 1.4375,0.3625 1.4375,1.1875 0,0.9524 -1.2778,1.6825 -3.5,2 -1.925,0.275 -3.5068,0.95 -3.5152,1.5 -0.019,1.2769 -5.2667,6.5 -6.5303,6.5 -0.525,0 -0.9545,0.45 -0.9545,1 0,0.55 -0.9551,1 -2.1224,1 -1.6622,0 -1.881,0.291 -1.0087,1.342 0.6126,0.7381 1.0052,1.531 0.8724,1.762 -0.1327,0.231 0.2583,-0.1479 0.8689,-0.842 1.5514,-1.7634 2.05,-1.5925 2.8816,0.988 0.6851,2.126 0.7609,2.0852 1.3748,-0.7404 1.0295,-4.7383 8.1334,-7.2336 8.1334,-2.857 0,0.8441 -0.9,1.77 -2,2.0577 -1.1,0.2876 -2,0.8723 -2,1.2993 0,1.4412 3.1305,1.9909 5.1581,0.9058 2.663,-1.4252 3.254,-0.65 3.5429,4.6474 0.2393,4.3888 0.2066,4.4372 -3.0073,4.4372 -2.0117,0 -3.9014,-0.7617 -4.9617,-2 -2.3665,-2.7638 -4.9442,-2.6221 -4.5449,0.25 0.222,1.596 -0.1231,2.1357 -1.1871,1.8568 -0.825,-0.2162 -2.4999,-0.3348 -3.722,-0.2635 -2.2953,0.1339 -4.7673,-2.9604 -3.4928,-4.3721 0.3931,-0.4355 0.1929,-0.4932 -0.445,-0.1283 -3.5086,2.0075 -6.8604,-5.9655 -3.7961,-9.0299 0.8008,-0.8007 1.4559,-2.1887 1.4559,-3.0844 0,-1.2667 -0.2667,-1.3619 -1.2,-0.4286 -1.4104,1.4104 -4.8,1.6094 -4.8,0.2818 0,-0.505 -0.2407,-1.5456 -0.535,-2.3123 -0.3155,-0.8222 0.5044,-1.9504 1.9985,-2.75 2.959,-1.5836 2.5238,-2.4399 -1.2637,-2.4864 -2.2118,-0.027 -2.7902,-0.5754 -3.1998,-3.0331 -0.275,-1.65 -1.1412,-3.9652 -1.9249,-5.1448 l -1.4248,-2.1449 -1.76,2.1449 c -1.5574,1.8979 -2.0132,1.9903 -3.9592,0.8026 -1.8399,-1.1229 -2.3381,-1.1229 -3.0498,0 -0.4679,0.7382 -0.822,1.7922 -0.787,2.3422 0.035,0.55 0.2698,0.4999 0.5217,-0.1113 0.6281,-1.5234 7.384,1.5739 7.384,3.3854 0,0.7466 -0.4917,2.2761 -1.0926,3.399 -0.7902,1.4765 -0.7902,2.3441 0,3.1343 0.6009,0.6009 1.0926,1.9026 1.0926,2.8926 0,1.3333 0.7778,1.8 3,1.8 2.3333,0 3,0.4444 3,2 0,1.1111 -0.6667,2 -1.5,2 -0.825,0 -1.5,0.675 -1.5,1.5 0,0.825 0.01,1.8375 0.011,2.25 0.01,0.6989 0.4445,0.8307 3.7388,1.1347 2.0448,0.1886 1.4248,4.8782 -1.1932,9.0253 -1.3437,2.1287 -2.1897,4.1238 -1.8799,4.4336 0.3098,0.3098 0.2757,1.7092 -0.076,3.1098 -0.8045,3.2057 -3.9093,3.3722 -6.0443,0.3241 -1.7406,-2.485 -2.0978,-5.23 -0.5567,-4.2775 0.55,0.3399 1,0.1415 1,-0.441 0,-1.593 -2.1364,-1.2837 -6.5,0.941 -2.1576,1.1 -4.5027,2 -5.2114,2 -0.7087,0 -1.2886,0.4436 -1.2886,0.9858 0,0.5422 -1.8022,2.1785 -4.0049,3.6362 -3.2628,2.1592 -3.7448,2.8567 -2.601,3.7642 2.1076,1.672 2.7755,5.0155 1.3606,6.8106 -0.9697,1.2304 -2.2768,1.4456 -5.7547,0.9476 -4.3761,-0.6267 -4.5088,-0.7513 -4.8182,-4.5262 -0.175,-2.135 0.1625,-4.3625 0.75,-4.95 0.5875,-0.5875 1.088,-3.1157 1.1121,-5.6182 0.024,-2.5025 0.6794,-6.3342 1.4561,-8.515 1.0134,-2.8455 1.1608,-5.1041 0.5219,-8 -0.523,-2.3703 -0.5143,-10.0172 0.021,-18.535 0.5012,-7.975 0.9404,-19.675 0.9762,-26 0.087,-15.4285 0.057,-62.4943 -0.043,-67.5 -0.4092,-20.4439 -0.2539,-25.2065 0.8898,-27.299 0.9228,-1.6882 0.9843,-3.1493 0.2315,-5.5 -1.7874,-5.5813 -2.0521,-23.7996 -0.3931,-27.0551 1.0299,-2.0211 1.2556,-4.3002 0.773,-7.8087 -0.5412,-3.9351 -0.3312,-5.3415 1.0209,-6.8355 1.6033,-1.7716 1.6022,-2.1825 -0.018,-7.0617 -1.4624,-4.4028 -1.5327,-5.7507 -0.4679,-8.9769 0.7322,-2.2186 0.9454,-4.9737 0.5131,-6.6297 -1.6969,-6.4988 -1.7384,-14.3592 -0.089,-16.8761 1.5228,-2.3241 1.4723,-2.7859 -0.8625,-7.8903 -2.3269,-5.0871 -2.4593,-6.2751 -2.1452,-19.2444 0.1841,-7.6024 0.6533,-17.1976 1.0426,-21.3226 0.3894,-4.125 0.3098,-8.5409 -0.1769,-9.813 -0.5159,-1.3487 -0.5058,-5.1008 0.024,-9 0.4999,-3.6779 0.8576,-9.387 0.7948,-12.687 -0.063,-3.3 -0.1023,-7.575 -0.088,-9.5 0.014,-1.925 0.024,-5.075 0.022,-7 -0.033,-29.282 -0.1917,-36.4485 -0.8884,-40.1778 -0.4521,-2.4199 -0.4374,-7.7573 0.033,-11.861 0.47,-4.1037 1.0693,-10.3862 1.3317,-13.9612 0.2625,-3.575 0.7533,-9.7706 1.0908,-13.768 0.369,-4.3718 0.1826,-8.3567 -0.4679,-10 -1.1515,-2.9091 -2.5712,-26.1137 -2.4615,-40.232 0.1894,-24.3782 0.153,-35.9748 -0.1947,-62 -0.3599,-26.9437 -0.2664,-28.8161 1.7128,-34.2889 1.6365,-4.5254 1.8573,-6.2715 1.0116,-8 -2.3992,-4.9036 -3.4724,-28.4905 -1.4094,-30.9762 0.6863,-0.827 0.713,-2.9047 0.08,-6.2375 -0.8967,-4.7221 -1.3705,-33.2387 -1.0301,-61.9974 0.085,-7.15 0.1188,-63.625 0.076,-125.5 -0.043,-61.875 -0.058,-117.9 -0.034,-124.5 0.024,-6.6 -0.1311,-27.75 -0.3451,-47 -0.214,-19.25 -0.3884,-47.375 -0.3876,-62.5 0,-35.40205 -0.084,-45.5422 -0.6247,-73.5 -0.2445,-12.65 -0.4084,-24.575 -0.3641,-26.5 0.044,-1.925 0.066,-8.45 0.049,-14.5 -0.017,-6.05 0,-12.8 0.044,-15 0.041,-2.2 -0.02,-41.35 -0.135,-87 -0.1155,-45.65 -0.1434,-85.025 -0.062,-87.5 0.2253,-6.85096 0.2557,-30.73744 0.048,-37.5 -0.1015,-3.3 -0.1737,-7.125 -0.1604,-8.5 0.3381,-34.93992 -1.1916,-159.79201 -2.0143,-164.40345 -1.1077,-6.20836 -7.0797,-23.46775 -9.3759,-27.09655 -0.6961,-1.1 -1.7891,-3.59787 -2.429,-5.55081 C 1722.9635,101.30707 1705.8398,87 1700.0664,87 c -0.8996,0 -4.0951,-0.862796 -7.1011,-1.917323 -8.4525,-2.965277 -36.9239,-5.20949 -57.9653,-4.569025 -9.625,0.29297 -19.75,0.540656 -22.5,0.550415 -47.1829,0.167432 -50.9595,0.153252 -61.25,-0.229971 -2.6125,-0.09729 -6.55,-0.04857 -8.75,0.108269 -2.2,0.156839 -12.325,0.3 -22.5,0.318135 -10.175,0.01814 -100.625,0.171677 -201,0.341204 -100.375,0.169528 -237.85,0.551264 -305.5,0.848303 -67.65,0.297039 -124.125,0.544181 -125.5,0.549204 -1.375,0.005 -12.175,0.04918 -24,0.09813 -23.05391,0.09543 -26.30931,0.08752 -32.5,-0.07896 -11.28713,-0.303533 -341.2755,1.049369 -379.5,1.555892 -24.475,0.324325 -46.975,0.465238 -50,0.313141 -3.025,-0.152097 -9.325,-0.251605 -14,-0.221128 -4.675,0.03048 -10.525,0.02887 -13,-0.0036 -12.20918,-0.160023 -64.18309,-0.03929 -69,0.160277 -3.025,0.12533 -12.11422,0.22567 -20.19827,0.222977 -8.08405,-0.0027 -16.63405,0.335577 -19,0.751711 -2.36595,0.416134 -6.55173,0.451994 -9.30173,0.07969 -4.20294,-0.569009 -15.64426,-0.759163 -37,-0.614938 -2.2,0.01486 -6.025,-0.108549 -8.5,-0.274238 -7.08104,-0.47404 -71.99605,0.891324 -73.03956,1.536249 -0.51503,0.31831 -3.35682,1.209178 -6.31508,1.979706 -12.33785,3.213602 -21.19627,8.781504 -31.93598,20.073137 -5.945655,6.25121 -12.553036,17.02168 -12.65911,20.6352 -0.02765,0.94187 -0.930394,4.09187 -2.006101,7 -3.501192,9.46533 -3.889848,19.15949 -4.642131,115.78751 -0.233365,29.975 -0.457212,55.85 -0.497436,57.5 -0.07937,3.2559 0.01513,35.80024 0.12051,41.5 0.03559,1.925 0.02754,22.4 -0.01788,45.5 -0.08163,41.51151 -0.09683,45.18647 -0.223339,54 -0.18292,12.74338 -0.268585,40.31016 -0.155379,50 0.07068,6.05 0.222856,128 0.338165,271 0.115308,143 0.220363,262.25 0.233456,265 0.13347,28.0348 0.156695,36.5075 0.108277,39.5 -0.03115,1.925 -0.09248,5.525 -0.136305,8 -0.09387,5.3018 -0.461528,139.0495 -0.41233,150 0.01853,4.125 0.247095,44.0625 0.507917,88.75 0.281546,48.2383 0.106058,81.25 -0.431919,81.25 -0.5251,0 -0.543227,0.7359 -0.04311,1.75 0.775659,1.5728 1.069964,19.9867 1.562318,97.75 0.08357,13.2 0.448654,24.456 0.811286,25.0134 0.362632,0.5574 0.705546,22.2589 0.76203,48.2257 0.05648,25.9667 0.485804,48.2357 0.954044,49.4866 0.468239,1.2508 0.88408,8.5743 0.924091,16.2743 0.164737,31.7031 0.706546,45.2112 1.869566,46.6111 0.6468,0.7785 1.724136,3.6595 2.39408,6.4022 1.648133,6.7473 1.834113,7.0521 10.41275,17.0652 4.68228,5.4652 7.51717,9.6504 7.51717,11.0978 0,1.6335 0.57654,2.3237 1.94098,2.3237 1.06754,0 2.2191,-0.45 2.55902,-1 1.22779,-1.9866 4.60196,-0.9282 8.37816,2.628 2.11883,1.9954 5.82624,4.3579 8.2387,5.25 2.41245,0.8921 6.32497,2.9371 8.69447,4.5444 3.86055,2.6188 5.00331,2.8926 10.99843,2.6355 3.67963,-0.1578 8.26524,-0.223 10.19024,-0.1449 4.63998,0.1884 60.79722,0.9605 64,0.88 1.375,-0.035 7.225,-0.04 13,-0.013 5.775,0.027 13.65,0.047 17.5,0.043 3.85,-0 16,0.069 27,0.1618 11,0.093 23.825,0.03 28.5,-0.1385 8.14829,-0.2945 38.14085,-0.1661 56,0.2398 4.675,0.1062 28.75,0.048 53.5,-0.1291 41.80089,-0.2994 53.48969,-0.3345 73.75,-0.2218 13.83141,0.077 16.07473,0.079 28.75,0.027 6.875,-0.028 16.325,0.048 21,0.1702 4.675,0.122 78.25,0.1752 163.5,0.1183 85.25,-0.057 157.025,-0.1046 159.5,-0.1061 19.2457,-0.012 84.40412,-0.1464 88,-0.1817 3.42985,-0.034 114.9556,-0.026 128,0.01 13.8708,0.037 113.8396,-0.592 131.7672,-0.8292 16.9355,-0.2241 23.589,0.014 24.45,0.875 1.3979,1.3979 7.4146,1.5875 8.2354,0.2596 0.324,-0.5243 6.5082,-0.749 14.309,-0.52 7.5561,0.2217 14.5259,0.3979 15.4884,0.3915 3.0352,-0.02 6.6829,0.056 29.6387,0.625 15.8552,0.3926 23.2054,0.2162 25.1872,-0.6048 2.3219,-0.9617 3.7526,-0.8022 8.3989,0.9362 3.0801,1.1524 6.4833,2.0953 7.5627,2.0953 1.0794,0 1.9625,0.4092 1.9625,0.9093 0,0.5 1.7783,0.05 3.9517,-1 2.1734,-1.0501 4.8734,-1.9093 6,-1.9093 1.1266,0 2.0483,-0.3401 2.0483,-0.7559 0,-0.4157 1.3276,-1.3435 2.9503,-2.0618 2.2193,-0.9824 3.4647,-1.0306 5.0267,-0.1946 1.4286,0.7646 9.7908,0.9751 26.7998,0.6748 13.5978,-0.24 25.1732,-0.5135 25.7232,-0.6077 1.6763,-0.2869 11.9703,1.4998 13.2705,2.3033 0.6709,0.4147 7.0303,0.9014 14.1321,1.0817 7.1017,0.1803 13.4236,0.6438 14.0486,1.0301 0.625,0.3862 1.6792,0.2751 2.3426,-0.2471 2.7764,-2.1853 25.365,-3.1468 47.2062,-2.0095 5.8549,0.3049 10.5124,0.1153 11.2362,-0.4573 0.68,-0.5379 2.8175,-0.7031 4.75,-0.367 1.9326,0.336 5.1299,0.89 7.1052,1.2311 1.9752,0.341 4.5627,0.1332 5.75,-0.4617 1.269,-0.636 12.2552,-1.3106 26.6586,-1.637 36.2792,-0.822 41.7498,-0.7923 62,0.3371 10.175,0.5675 20.5202,0.8869 22.9894,0.7099 5.4301,-0.3893 7.0624,0.133 6.3356,2.0271 -0.3018,0.7865 -0.011,2.0776 0.6457,2.8692 1.5187,1.8299 0.6324,4.6776 -1.9595,6.2962 -1.6812,1.0499 -2.0112,1.0085 -2.0112,-0.2524 0,-0.8297 0.4264,-1.5085 0.9477,-1.5085 0.5355,0 0.3855,-1.6308 -0.345,-3.75 -1.1897,-3.4515 -1.6298,-3.7748 -5.5285,-4.0615 l -4.236,-0.3114 0.3071,4.254 c 0.2919,4.0417 0.1473,4.2955 -2.896,5.0841 -3.7744,0.978 -5.548,3.7467 -4.6618,7.2773 0.3844,1.5316 0.097,3.1974 -0.7258,4.2124 -0.7513,0.9263 -0.8396,1.366 -0.1971,0.9808 0.6405,-0.384 1.337,-0.1808 1.5478,0.4515 0.4578,1.3734 4.7876,-0.5912 4.7876,-2.1724 0,-0.5306 0.45,-0.9648 1,-0.9648 0.55,0 1,0.8734 1,1.941 0,3.0898 1.5754,3.2295 3.0993,0.2749 0.7703,-1.4938 2.6674,-3.9363 4.2157,-5.4279 2.2159,-2.1347 3.4399,-2.587 5.7501,-2.125 1.6142,0.3229 2.9349,1.1506 2.9349,1.8396 0,0.6889 0.7034,1.8363 1.5632,2.5498 1.3936,1.1566 1.3981,1.3897 0.042,2.1489 -0.8369,0.4684 -1.2894,1.4567 -1.0057,2.1962 0.2838,0.7395 -0.1883,2.049 -1.0492,2.9098 -0.8608,0.8609 -1.1627,1.8139 -0.6708,2.1179 0.4918,0.304 1.1907,2.1327 1.553,4.0638 0.6502,3.4659 1.8639,4.4593 3.068,2.511 0.3399,-0.55 1.4364,-1 2.4366,-1 2.9831,0 4.4249,-2.4957 2.5342,-4.3864 -0.8791,-0.879 -1.3181,-2.0517 -0.9755,-2.6059 0.3425,-0.5542 0.01,-1.0077 -0.7452,-1.0077 -0.7523,0 -2.2413,-0.6694 -3.309,-1.4875 -1.8992,-1.4554 -1.8871,-1.5305 0.5589,-3.4778 2.9873,-2.3782 5.5709,-2.5954 6.3616,-0.5347 0.3166,0.825 1.6666,1.5 3,1.5 1.3334,0 2.7069,0.7363 3.0523,1.6361 0.5767,1.5031 0.7814,1.4971 2.5162,-0.073 1.8592,-1.6825 1.7897,-3.371 -0.3543,-8.6082 -0.9048,-2.2102 7.2335,-5.8651 8.5238,-3.8281 0.4784,0.7552 0.8767,1.8856 0.8851,2.512 0.01,0.6264 0.8016,1.0764 1.7626,1 1.4058,-0.1118 1.7988,0.7946 2.011,4.6382 0.1942,3.5163 -0.1351,4.9302 -1.2473,5.357 -0.831,0.3189 -1.511,1.249 -1.511,2.0667 0,1.2166 0.9542,1.3586 5.25,0.7811 6.38,-0.8578 7.5451,-1.7095 7.9422,-5.8064 0.2548,-2.6283 0.7817,-3.23 3.0578,-3.4919 2.6194,-0.3014 2.75,-0.5715 2.75,-5.6879 0,-4.4544 0.2987,-5.3689 1.75,-5.357 3.9192,0.032 7.3257,-0.8972 9.0683,-2.4743 1.0142,-0.9178 2.145,-1.3678 2.5129,-0.9999 0.3678,0.3679 0.6688,-0.081 0.6688,-0.9978 0,-0.9167 -0.45,-1.6667 -1,-1.6667 -2.4541,0 -0.6826,-2.8135 2.125,-3.375 4.8361,-0.9672 4.9797,-0.8672 4.4978,3.131 -0.2793,2.317 0.089,4.4975 0.9622,5.6912 0.7783,1.0643 1.415,1.5543 1.415,1.0889 0,-0.4653 0.8697,-0.059 1.9326,0.9029 1.097,0.9927 1.6753,2.4193 1.3375,3.2996 -0.8267,2.1544 2.6076,4.6078 4.3851,3.1326 1.8481,-1.5338 4.3448,-0.3285 4.3448,2.0974 0,1.9988 -2.832,2.866 -4.3623,1.3358 -1.5,-1.5 -3.2378,-0.9635 -3.3892,1.0463 -0.3186,4.2304 -2.415,6.6493 -5.7625,6.6493 -3.8551,0 -7.5122,-3.3738 -5.6624,-5.2236 0.647,-0.647 1.1764,-0.7949 1.1764,-0.3285 0,0.4663 1.0336,-0.6812 2.2969,-2.55 1.6287,-2.4096 1.9923,-3.731 1.25,-4.5429 -0.5758,-0.6298 -1.4491,-0.9007 -1.9408,-0.6021 -0.4916,0.2986 -2.2916,0.6968 -4,0.8849 -3.2304,0.3556 -7.6061,2.2562 -7.6061,3.3038 0,0.332 1.575,1.4518 3.5,2.4885 1.925,1.0366 3.5,2.2337 3.5,2.66 0,1.2483 -3.6241,2.0424 -6.2794,1.3759 -1.7159,-0.4307 -2.6305,-0.1433 -3.0537,0.9596 -0.3323,0.8659 -1.2933,1.5744 -2.1355,1.5744 -0.8423,0 -1.5314,0.5025 -1.5314,1.1166 0,0.6142 -0.8008,0.9073 -1.7795,0.6513 -0.9788,-0.2559 -2.3465,0.1416 -3.0395,0.8834 -0.6929,0.7418 -2.4796,1.4006 -3.9704,1.464 -5.8794,0.2502 -13.2106,2.6447 -13.2106,4.3148 0,0.7442 -1.0977,1.6286 -2.4393,1.9653 -1.9904,0.4996 -2.5647,1.4482 -3.1205,5.1546 -0.3746,2.4983 -0.4405,4.7831 -0.1463,5.0772 1.017,1.0171 4.7061,-1.704 4.7061,-3.4713 0,-2.8372 2.3333,-5.349 4.2764,-4.6033 2.1699,0.8326 2.2276,3.066 0.1097,4.2512 -1.1401,0.638 -1.4015,1.5722 -0.8907,3.1818 0.3978,1.2533 1.0116,1.8189 1.3639,1.257 0.3524,-0.5618 2.6339,-1.6167 5.07,-2.3441 3.4473,-1.0293 4.5194,-1.0524 4.8354,-0.1043 0.2234,0.6701 0.8177,0.9639 1.3207,0.653 1.8289,-1.1303 0.8562,1.7019 -1.3354,3.8886 l -2.25,2.2449 2.1968,4.1835 c 2.252,4.2885 1.6514,6.4412 -1.0448,3.745 -1.988,-1.988 -2.1633,-1.949 -5.005,1.1157 -1.573,1.6964 -2.8959,2.3393 -3.7399,1.8177 -0.7184,-0.444 -2.39,-0.8547 -3.7148,-0.9127 -1.3248,-0.058 -3.0528,-0.9862 -3.84,-2.0628 -1.234,-1.6876 -1.5683,-1.7513 -2.4253,-0.4622 -3.3531,5.0435 -3.2357,5.9951 0.7397,5.9951 2.7614,0 3.2096,2.7827 0.5833,3.6221 -0.9625,0.3076 -2.65,0.9802 -3.75,1.4947 -3.142,1.4695 -8.5865,0.4014 -11.3229,-2.2214 -1.7216,-1.65 -2.6326,-2.0009 -2.9275,-1.1275 -0.2355,0.6973 -1.1224,1.962 -1.9709,2.8106 -1.3903,1.3903 -1.8052,1.2913 -4.1991,-1.0022 -2.5748,-2.4668 -2.6612,-2.4806 -2.8143,-0.4476 -0.2378,3.1568 -1.0441,3.4221 -3.5192,1.1581 -2.2145,-2.0254 -2.2737,-2.0274 -4.2067,-0.1368 -2.9526,2.8879 -6.2912,3.3846 -8.615,1.2816 -1.0972,-0.993 -1.7825,-2.3591 -1.5228,-3.0357 0.9966,-2.5972 -2.4712,-2.1724 -5.2918,0.6481 -3.2731,3.2732 -9.1098,4.206 -9.1098,1.456 0,-1.8617 -1.0652,-1.904 -3.4799,-0.1383 -1.0242,0.7489 -2.6555,1.1542 -3.6251,0.9006 -1.8008,-0.4709 -7.6277,1.0146 -11.6181,2.962 -1.8517,0.9036 -2.9077,0.6106 -6.3196,-1.7539 -2.2531,-1.5614 -4.7517,-4.1059 -5.5526,-5.6546 -0.8008,-1.5487 -1.6142,-2.8158 -1.8075,-2.8158 -0.1934,0 -0.1284,1.9796 0.1443,4.3992 0.4357,3.8656 0.1936,4.5972 -1.9962,6.032 -1.7961,1.1769 -3.6143,1.4535 -6.5101,0.9904 -2.21,-0.3534 -4.8237,-0.1916 -5.8084,0.3594 -2.4805,1.3882 -8.6832,-0.9307 -13.8798,-5.189 l -4.1269,-3.3817 -4.2846,2.9216 c -2.3566,1.6068 -4.8136,2.8193 -5.4601,2.6945 -0.6465,-0.1249 -2.9286,0.1208 -5.0714,0.546 -2.817,0.5589 -4.1537,0.4067 -4.8262,-0.5497 -0.7294,-1.0374 -1.0395,-1.0531 -1.4373,-0.073 -0.6056,1.4925 -3.9653,1.6661 -4.8405,0.25 -0.3399,-0.55 -2.0044,-1 -3.6988,-1 -1.7163,0 -3.6183,-0.7352 -4.2946,-1.6601 -1.1192,-1.5306 -1.5716,-1.4869 -5.8001,0.5601 l -4.5863,2.2202 -2.1818,-2.1818 -2.1818,-2.1818 -2.0087,3.1725 c -1.6998,2.6848 -2.437,3.0785 -4.7944,2.5607 -2.0304,-0.446 -3.0442,-0.1502 -3.7387,1.0908 -0.7153,1.2782 -1.671,1.5327 -3.8338,1.0208 -1.5846,-0.375 -3.331,-0.6679 -3.881,-0.651 -2.3629,0.073 -5.1268,0.7009 -6.315,1.4353 -1.5897,0.9824 -10.8565,-1.15 -14.0625,-3.2359 -1.3077,-0.8508 -4.9077,-1.8818 -8,-2.2911 -3.0924,-0.4092 -6.573,-1.0312 -7.7348,-1.382 -1.5991,-0.483 -2.2445,-0.1324 -2.6564,1.4427 -0.3975,1.5202 -1.3466,2.0806 -3.5234,2.0806 -1.6386,0 -4.2682,0.6722 -5.8436,1.4938 -3.8016,1.9827 -4.9753,1.8952 -7.4242,-0.5537 l -2.0599,-2.0599 -4.1901,2.4411 -4.1901,2.4411 -53.5,-0.3014 c -29.425,-0.1658 -55.075,-0.3284 -57,-0.3614 -1.925,-0.033 -7.8083,0.1851 -13.074,0.4847 -7.9846,0.4543 -9.7931,0.2808 -10.8934,-1.045 -1.1922,-1.4366 -1.4843,-1.4405 -3.0314,-0.04 -2.3445,2.1218 -5.2385,0.9154 -4.4792,-1.8673 0.5689,-2.0851 0.5477,-2.0893 -0.9702,-0.1905 -0.8535,1.0677 -1.5518,2.3575 -1.5518,2.8663 0,0.5456 -4.2054,0.6801 -10.25,0.3277 -5.6375,-0.3286 -10.7,-0.5733 -11.25,-0.5437 -22.7521,1.2227 -34.8471,1.3411 -39.6967,0.3885 -3.1332,-0.6155 -6.3371,-0.7607 -7.1197,-0.3227 -2.4886,1.3927 -42.8859,1.3945 -45.4336,0 -1.6048,-0.8771 -2.8047,-0.9328 -4.1843,-0.1945 -2.7897,1.493 -21.3618,1.3391 -22.8907,-0.1898 -0.9457,-0.9457 -1.6545,-0.9566 -3.1098,-0.048 -3.6338,2.2693 -15.3904,2.6026 -70.5652,2.0003 -3.3,-0.036 -8.025,0.082 -10.5,0.2629 -2.475,0.1807 -6.975,-0.2159 -10,-0.8813 -10.4886,-2.3069 -11.0056,-2.3493 -12.5933,-1.0316 -2.2377,1.857 -10.7925,1.6796 -12.7363,-0.2642 -0.8642,-0.8643 -3.7311,-1.8952 -6.3709,-2.291 -2.6397,-0.3958 -5.5383,-1.1151 -6.4414,-1.5983 -1.0658,-0.5704 -2.7423,-0.3296 -4.779,0.6864 -2.3136,1.1542 -3.8528,1.3155 -5.86329,0.6147 -3.19964,-1.1154 -6.63844,-0.079 -8.03827,2.4221 -0.87879,1.5703 -2.67391,1.7794 -15.57437,1.8139 -15.3444,0.041 -15.60317,-0.036 -15.60317,-4.6707 0,-1.8197 -0.43326,-1.9767 -3.9162,-1.4198 -2.15392,0.3444 -5.31249,1.4144 -7.01905,2.3778 -2.44394,1.3796 -3.2736,1.4813 -3.90695,0.4787 -0.64125,-1.015 -1.56566,-0.9546 -4.56443,0.2983 -2.54409,1.063 -8.34236,1.7382 -17.92685,2.0877 -7.79159,0.284 -15.51652,0.8525 -17.16652,1.2633 -1.65,0.4108 -8.625,0.4572 -15.5,0.1031 -6.875,-0.354 -17,-0.2689 -22.5,0.1891 -5.5,0.4581 -16.3,0.5206 -24,0.139 -7.7,-0.3816 -36.5,-0.6281 -64,-0.5477 -27.5,0.08 -131.10644,0.3791 -230.23654,0.664 l -180.23653,0.5179 -2.49358,-2.6893 c -2.3175,-2.4993 -2.58363,-2.566 -3.76909,-0.9448 -1.86355,2.5486 -14.40077,5.7225 -16.05802,4.0652 z m 1389.50836,-11.2143 c -0.707,-0.4512 -1.5534,-2.4715 -1.8809,-4.4895 -0.5319,-3.2778 -0.3648,-3.6691 1.5668,-3.6691 1.1893,0 2.4213,0.675 2.7379,1.5 0.6023,1.5696 4.0636,1.9951 5.9768,0.7347 2.1828,-1.438 2.5778,-5.0232 0.6786,-6.1597 -1.705,-1.0204 -1.6947,-1.1501 0.2062,-2.6201 1.8385,-1.4217 2.1413,-1.3724 3.75,0.6101 0.9625,1.1861 1.75,2.7817 1.75,3.5458 0,0.7641 0.675,1.3892 1.5,1.3892 0.825,0 1.5,-0.4179 1.5,-0.9286 0,-1.9289 3.2564,-4.0714 6.1881,-4.0714 2.6063,0 2.9656,-0.3042 2.4931,-2.1113 -0.5808,-2.2209 0,-3.1875 4.7323,-7.8365 2.9111,-2.8615 5.5865,-3.0748 5.5865,-0.4452 0,1.9395 1.3782,1.7375 3.4018,-0.4985 1.0175,-1.1243 2.5,-1.6854 3.655,-1.3834 1.2697,0.332 1.9432,0 1.9432,-0.9535 0,-1.9073 3.1987,-4.7716 5.3287,-4.7716 1.1014,0 1.6713,0.8254 1.6713,2.4204 0,1.7193 -1.9512,4.1814 -6.7361,8.5 -5.5727,5.0295 -7.3485,6.0796 -10.2814,6.0796 -2.8582,0 -4.518,0.9205 -8.5651,4.75 -4.2508,4.0223 -6.4409,5.1806 -14.2945,7.5605 -5.101,1.5458 -9.803,3.0035 -10.4488,3.2395 -0.6457,0.2359 -1.7525,0.06 -2.4595,-0.3914 z m -62.5751,-56.0203 c -3.2251,-1.9568 -3.2972,-3.3123 -0.3895,-7.3221 1.6004,-2.2069 1.8891,-3.2298 1,-3.5428 -0.6875,-0.242 -1.25,-0.8526 -1.25,-1.3567 0,-1.3694 5.4098,-1.1063 6.854,0.3333 1.0037,1.0005 1.5925,0.8112 2.95,-0.9486 2.0954,-2.7165 7.1407,-4.7567 8.4717,-3.4257 1.456,1.456 -0.203,3.2822 -2.3599,2.5976 -1.0537,-0.3344 -1.9158,-0.146 -1.9158,0.4188 0,0.5648 -1.0607,2.0577 -2.3571,3.3174 -3.3631,3.2681 -3.7794,5.2242 -1.4249,6.6946 1.9902,1.2429 1.9849,1.278 -0.3769,2.5033 -4.2203,2.1895 -6.4993,2.3706 -9.2016,0.7309 z m 30.9616,-8.5947 c -2.564,-3.3615 -2.6089,-3.6279 -1.102,-6.5419 1.4294,-2.764 1.4285,-3.0922 -0.01,-3.6439 -2.5034,-0.9607 1.9625,-3.6664 4.6458,-2.8147 1.4798,0.4696 1.8976,0.3198 1.3916,-0.499 -0.3978,-0.6436 0.1084,-2.0897 1.1247,-3.2135 2.3269,-2.573 9.348,-6.2164 9.348,-4.8509 0,0.5612 -0.3778,1.0203 -0.8395,1.0203 -0.4617,0 -1.3402,1.099 -1.9522,2.4422 -0.8677,1.9044 -0.7782,3.1126 0.4064,5.4872 1.7018,3.4114 1.1775,5.0706 -1.6023,5.0706 -1.0282,0 -2.6281,0.7586 -3.5552,1.6857 -1.5809,1.5809 -1.5543,1.7342 0.4286,2.4677 2.5725,0.9517 2.6706,2.0481 0.3642,4.0733 -3.6608,3.2147 -5.8051,3.0453 -8.6489,-0.6831 z M 1730.2,1736.8 c -2.0319,-2.0319 -1.3413,-5.5437 1.535,-7.8062 2.47,-1.9429 2.5669,-2.2454 1,-3.1222 -0.9543,-0.5341 -1.735,-1.6302 -1.735,-2.436 0,-0.8057 -1.2525,-2.2459 -2.7833,-3.2003 -1.8905,-1.1786 -2.658,-2.3769 -2.3924,-3.7353 0.5399,-2.762 2.1956,-4.6057 3.4435,-3.8345 0.5727,0.3539 0.7611,0.1903 0.4187,-0.3637 -0.3423,-0.5539 -0.074,-1.7412 0.5955,-2.6383 1.1139,-1.4917 1.6027,-1.4401 5.718,0.6027 5.6272,2.7933 6.307,3.737 4.2944,5.961 -1.4756,1.6305 -1.469,1.7728 0.082,1.7728 2.6361,0 2.9919,2.6317 0.6697,4.9539 -1.1597,1.1597 -2.3738,3.4344 -2.6979,5.0549 -0.3241,1.6205 -1.21,3.4615 -1.9687,4.0912 -0.7587,0.6297 -1.3795,2.2148 -1.3795,3.5224 0,2.6182 -2.6976,3.28 -4.8,1.1776 z M 144.96641,1704.5167 c -10.81259,-2.9938 -16.58354,-7.598 -20.54509,-16.3911 -2.01129,-4.4643 -2.42132,-6.9733 -2.42132,-14.8158 0,-5.1927 -0.44462,-10.2721 -0.98805,-11.2875 -0.81466,-1.5222 -2.31428,-195.9965 -1.90483,-247.0223 0.12223,-15.2325 0.11329,-17.6621 -0.49157,-133.5 -0.38289,-73.3274 -0.8397,-100.9871 -1.71263,-103.7007 -0.89873,-2.7937 -0.91402,-4.7542 -0.0624,-8 0.74645,-2.8448 0.95688,-11.0653 0.62203,-24.2993 -0.27832,-11 -0.44299,-22.025 -0.36592,-24.5 0.0771,-2.475 0.0937,-9 0.037,-14.5 -0.12215,-11.8473 -0.2365,-369.84167 -0.12985,-406.5 0.2969,-102.05284 0.2908,-127.70018 -0.0347,-146 -0.47333,-26.60969 0.88775,-87.54558 2.03685,-91.19 0.52082,-1.65179 0.34525,-5.5861 -0.4549,-10.19381 -0.80944,-4.66126 -1.00394,-9.13505 -0.51344,-11.81 0.43429,-2.3684 0.35831,-9.93119 -0.16884,-16.80619 -0.52716,-6.875 -0.704,-14.525 -0.39299,-17 0.31102,-2.475 0.57085,-36.225 0.57741,-75 0.007,-38.775 0.0216,-71.175 0.0334,-72 0.0118,-0.825 0.21525,-21.075 0.45206,-45 0.43593,-44.04367 1.42413,-66.51964 3.21572,-73.13913 1.47396,-5.44589 4.02182,-8.39418 11.67294,-13.50747 6.92736,-4.6296 6.92737,-4.6296 18.5,-5.44927 11.46387,-0.81196 232.94344,-2.33504 255.07264,-1.75409 6.325,0.16604 13.525,0.20434 16,0.0851 2.475,-0.11925 70.2,-0.43295 150.5,-0.69711 118.50967,-0.38987 242.20058,-1.22635 261.5,-1.76844 1.925,-0.0541 4.625,-0.009 6,0.0995 1.375,0.10881 68.875,-0.10549 150,-0.47624 81.125,-0.37074 150.2,-0.63411 153.5,-0.58525 8.6958,0.12873 304.2793,0.32494 354.5,0.23532 110.3167,-0.19687 171.8883,0.14959 176,0.99035 2.475,0.50608 5.7004,1.15489 7.1676,1.44181 3.2525,0.63602 13.323,9.65012 15.5521,13.92065 0.8912,1.70733 1.7435,5.449 1.894,8.31482 0.1506,2.86582 0.6991,6.01582 1.219,7 0.5198,0.98418 0.7537,5.38942 0.5198,9.78942 -0.4276,8.04165 -0.5205,20.00523 -0.2563,33 0.078,3.85 0.1035,10.375 0.056,14.5 -0.047,4.125 0.1158,29.775 0.3626,57 0.2469,27.225 0.6592,74.925 0.9162,106 0.2571,31.075 0.4992,57.4 0.5381,58.5 0.039,1.1 0.063,12.575 0.055,25.5 -0.01,12.925 0.025,54.775 0.075,93 0.05,38.225 0.061,75.125 0.023,82 -0.037,6.875 0.01,14.75 0.1,17.5 0.092,2.75 0.068,6.8 -0.053,9 -0.1212,2.2 0.026,44.5 0.3271,94 0.5385,88.52214 1.4142,255.042 1.3514,257 -0.018,0.55 -0.1985,79.525 -0.4019,175.5 -0.4607,217.3416 -0.7855,264.1447 -1.8448,265.8464 -1.2638,2.0302 -0.812,51.4294 0.5186,56.7138 0.6536,2.5958 0.8422,6.6924 0.4473,9.7143 -0.3757,2.874 -0.5858,7.4755 -0.4669,10.2255 0.2819,6.5218 0.2081,7.6151 -1.1138,16.5 -0.8475,5.697 -0.8242,8.895 0.097,13.3028 1.5894,7.6053 0.6119,25.2718 -1.5291,27.6376 -1.2772,1.4113 -1.3053,1.9757 -0.1803,3.616 2.4214,3.5301 3.2527,14.359 2.5097,32.6936 -0.095,2.3375 0.1674,6.725 0.5824,9.75 0.7364,5.3683 -0.6813,14.104 -2.2511,13.8698 -4.2454,-0.6335 -5.0761,0.1733 -5.7525,5.5872 -0.5259,4.2091 -1.2283,5.815 -3.0719,7.023 -1.9783,1.2962 -2.3902,1.3237 -2.3902,0.1596 0,-1.7176 -4.2121,-2.66 -6.4047,-1.433 -0.8774,0.491 -1.5953,1.9954 -1.5953,3.3431 0,2.9507 -3.3328,3.4251 -4.9199,0.7003 -0.9507,-1.6323 -1.0213,-1.6229 -1.0497,0.1398 -0.017,1.0393 -0.7553,2.4198 -1.6413,3.0676 -1.4735,1.0775 -1.4625,1.3263 0.1289,2.9178 1.0293,1.0293 2.4019,1.4668 3.3609,1.0712 3.5999,-1.4847 4.5371,-0.9555 5.1934,2.9329 0.5507,3.2622 0.3585,3.9568 -1.2087,4.3666 -2.2255,0.582 -2.4953,2.2541 -0.3636,2.2541 2.1975,0 1.8306,1.6803 -0.5,2.2897 -1.3515,0.3535 -2,1.3641 -2,3.1167 0,1.6388 -0.5522,2.5936 -1.5,2.5936 -1.9306,0 -1.9449,-3.3859 -0.021,-4.9826 1.0744,-0.8916 1.2112,-1.7278 0.5,-3.0567 -0.5385,-1.0061 -0.979,-2.7588 -0.979,-3.895 0,-2.1726 -1.4431,-2.7759 -2.5101,-1.0494 -0.3454,0.559 -1.005,0.7834 -1.4657,0.4986 -0.4607,-0.2847 -0.6024,0.3822 -0.3148,1.482 0.2876,1.0997 -0.2114,3.1202 -1.1088,4.4899 -1.2987,1.9821 -1.3922,2.874 -0.4584,4.3693 2.0409,3.268 0.5007,5.0783 -3.5444,4.166 -2.9879,-0.6739 -3.6268,-0.5062 -4.1316,1.0844 -0.3285,1.0349 -1.2946,2.579 -2.1469,3.4313 -1.5943,1.5943 -3.2513,7.1856 -2.656,8.9622 0.1843,0.55 2.6773,0.9418 5.54,0.8706 3.7868,-0.094 5.8643,-0.7165 7.6246,-2.2845 2.3034,-2.0517 2.3369,-2.2465 0.6979,-4.0576 -2.205,-2.4365 -1.2039,-4.0285 2.5332,-4.0285 2.2743,0 2.941,-0.4534 2.941,-2 0,-2.2383 2.2823,-2.6036 6.4255,-1.0283 1.4056,0.5344 2.5066,0.6469 2.4466,0.25 -0.06,-0.397 -0.056,-1.5643 0.01,-2.5941 0.098,-1.5482 0.3782,-1.6569 1.6184,-0.6276 1.924,1.5968 1.9014,2.986 -0.072,4.429 -1.1187,0.818 -1.3722,1.9453 -0.879,3.9102 0.8619,3.4341 3.7992,3.2123 4.3001,-0.3247 0.192,-1.3557 1.2045,-3.0641 2.25,-3.7964 1.0455,-0.7323 1.9009,-2.341 1.9009,-3.5748 0,-1.2338 0.4591,-2.7024 1.0202,-3.2635 0.6936,-0.6936 0.2187,-1.4492 -1.4834,-2.3601 -2.6377,-1.4116 -4.0964,-4.3052 -3.0357,-6.0215 0.4032,-0.6524 1.407,-0.4756 2.7871,0.4911 3.1907,2.2349 4.6984,1.8473 4.8214,-1.2393 0.079,-1.9757 0.3537,-1.5056 0.9768,1.6695 0.7179,3.6587 0.5269,4.9702 -1.1096,7.618 -1.0872,1.7592 -1.9768,4.1098 -1.9768,5.2235 0,2.8842 -8.6776,12.0069 -14.0087,14.7274 -2.5262,1.2891 -7.5828,2.6432 -11.5,3.0796 -9.1645,1.0211 -37.7873,0.7378 -43.3632,-0.4291 -4.5176,-0.9454 -9.6628,-5.4647 -8.452,-7.4238 0.3641,-0.5891 0.141,-0.7201 -0.5253,-0.3083 -0.6871,0.4247 -0.8983,1.7512 -0.5191,3.2618 0.3749,1.4938 0.1686,2.8368 -0.4991,3.2495 -0.626,0.3868 -13.1744,0.7949 -27.8854,0.9068 -14.7109,0.112 -28.1623,0.4633 -29.8919,0.7808 -1.7296,0.3176 -4.0323,0.1024 -5.1171,-0.4782 -1.3906,-0.7443 -3.7231,-0.73 -7.9091,0.048 -5.11,0.9503 -6.4523,0.8594 -9.6394,-0.653 -2.8012,-1.3292 -4.0343,-1.4819 -5.0646,-0.6268 -1.2504,1.0378 -11.1859,1.1508 -87.6251,0.9974 -1.925,-0 -5.4447,0.536 -7.8216,1.1997 -3.4148,0.9535 -6.063,0.9358 -12.6215,-0.084 -4.6732,-0.727 -9.5576,-0.9539 -11.1784,-0.5192 -2.4764,0.6641 -73.1153,1.2031 -102.8785,0.7849 -5.5,-0.077 -18.55,-0.2119 -29,-0.2991 -13.1839,-0.11 -19.8166,-0.5537 -21.6677,-1.4493 -1.8104,-0.876 -2.9949,-0.9636 -3.686,-0.2725 -1.2936,1.2936 -25.2384,2.8529 -39.6463,2.5819 -6.05,-0.1138 -30.4802,-0.1171 -54.2894,-0.01 -29.5372,0.1363 -43.9325,-0.1444 -45.3139,-0.8837 -1.476,-0.7899 -2.4022,-0.7701 -3.4185,0.073 -1.036,0.8598 -34.982,1.2259 -132.1861,1.4256 -71.93565,0.1478 -136.8671,0.221 -144.2921,0.1625 -7.425,-0.058 -24.75,-0.07 -38.5,-0.026 -13.75,0.044 -36.7,0.117 -51,0.1627 -14.3,0.046 -81.8,0.02 -150,-0.057 -68.2,-0.077 -135.925,-0.039 -150.5,0.084 -22.34005,0.1888 -125.04714,0.4903 -134.5,0.3949 -47.16564,-0.4763 -153.59307,-0.4952 -158,-0.028 -3.71666,0.394 -7.72529,0.1583 -10.53359,-0.6193 z m 1060.47029,-90.9508 c 1.6848,-0.7429 7.3383,-3.0123 12.5633,-5.0432 11.1376,-4.3289 12.6086,-4.9761 28.8066,-12.6741 6.7686,-3.2167 12.6186,-5.8586 13,-5.8708 0.3814,-0.012 1.8184,-0.9023 3.1934,-1.9778 1.375,-1.0755 3.1038,-1.9655 3.8418,-1.9778 0.7381,-0.012 2.5381,-0.963 4,-2.1129 2.2671,-1.783 10.6732,-6.9257 22.6582,-13.8618 4.9271,-2.8514 27.2965,-17.9094 37.5,-25.243 22.2287,-15.9767 56.2118,-46.2932 72.1404,-64.357 5.0669,-5.7461 9.6957,-10.4389 10.2861,-10.4284 1.2243,0.022 10.7463,10.7556 16.9213,19.0749 2.2837,3.0767 5.4764,7.3517 7.0949,9.5 1.6185,2.1483 6.5691,7.506 11.0014,11.906 4.4323,4.4 9.6331,10.0186 11.5573,12.4857 4.1185,5.2805 9.1805,10.4214 21.6764,22.0143 16.8658,15.647 21.2495,19.317 26.5085,22.1929 5.5023,3.0089 7.0657,4.5904 6.0932,6.1639 -0.3309,0.5354 -0.056,0.6228 0.629,0.1997 1.5462,-0.9556 5.0915,2.1783 5.0915,4.5007 0,1.0407 1.2083,2.1684 2.9883,2.7889 1.6435,0.5729 4.906,2.3356 7.25,3.9171 5.2076,3.5137 11.7708,6.5178 17.7617,8.13 7.8656,2.1167 14.3522,-1.4803 20.3766,-11.2993 2.3972,-3.9071 4.6946,-5.6859 6.7409,-5.2193 1.006,0.2294 1.5731,-0.2442 1.5,-1.2529 -0.078,-1.0707 0.647,-1.5947 2.1325,-1.5423 1.2375,0.044 2.25,-0.2632 2.25,-0.6819 0,-0.4187 1.3497,-1.7224 2.9993,-2.897 3.068,-2.1846 6.9995,-2.0067 7.0019,0.3169 0,1.203 4.3049,6.6826 5.2485,6.6826 1.5163,0 1.4785,-4.4833 -0.048,-5.643 -1.1717,-0.8903 -1.2903,-1.3033 -0.3807,-1.3252 0.7268,-0.017 1.9965,-0.7068 2.8215,-1.5318 1.7204,-1.7204 3.3571,-1.9642 3.3571,-0.5 0,1.856 1.7622,1.0172 2.3166,-1.1028 0.5246,-2.006 0.691,-1.9583 3.6167,1.0345 1.6867,1.7255 3.0667,3.7967 3.0667,4.6028 0,0.806 0.675,1.4655 1.5,1.4655 1.8745,0 1.8961,0.1954 -0.532,-4.8302 l -2.0321,-4.2058 3.5321,-4.6258 c 1.9426,-2.5442 3.5641,-5.1236 3.6033,-5.732 0.039,-0.6084 0.295,-2.9062 0.5684,-5.1062 0.8285,-6.6672 -1.4295,-14.9149 -5.0093,-18.297 -3.2431,-3.0639 -14.8839,-8.203 -18.5811,-8.203 -1.1603,0 -4.6835,-1.0677 -7.8294,-2.3727 -3.146,-1.305 -7.5199,-2.921 -9.7199,-3.5912 -9.9323,-3.0257 -29.9779,-12.2432 -37,-17.0137 -2.2,-1.4945 -4.9556,-3.3485 -6.1236,-4.1199 -7.8419,-5.1792 -16.1925,-11.3281 -24.6292,-18.1357 C 1491.7283,1464.0342 1453,1424.2544 1453,1420.506 c 0,-0.3553 2.1032,-4.102 4.6738,-8.326 2.5707,-4.224 7.7543,-14.205 11.5192,-22.18 3.765,-7.975 7.7367,-16.23 8.8262,-18.3445 1.0894,-2.1145 1.9808,-4.2266 1.9808,-4.6937 0,-0.467 1.784,-4.587 3.9645,-9.1555 2.1805,-4.5684 6.253,-14.6063 9.05,-22.3063 2.7971,-7.7 5.4717,-14.9 5.9437,-16 2.7447,-6.3971 6.9654,-18.0885 12.0936,-33.5 6.3227,-19.0013 12.5969,-37.3218 13.87,-40.5 1.0967,-2.7381 2.7114,-7.9432 4.498,-14.5 0.8243,-3.025 4.2578,-13.375 7.6301,-23 5.8427,-16.6761 6.8383,-19.7582 8.802,-27.25 1.1779,-4.4939 6.7296,-17.5711 9.1178,-21.4772 1.0852,-1.7749 5.9952,-6.4041 10.911,-10.287 10.5371,-8.3232 12.1193,-10.452 12.1193,-16.3068 0,-5.1977 -3.8548,-10.8925 -11.6266,-17.1761 -2.6804,-2.1671 -9.3734,-8.0863 -14.8734,-13.1538 -5.5,-5.0676 -13.5677,-12.1692 -17.9281,-15.7814 -7.4694,-6.1876 -8.2217,-6.5675 -13,-6.564 -6.8855,0.01 -9.6053,1.8863 -20.072,13.8835 l -8.8228,10.1128 -109.5885,0 c -107.0231,0 -109.6637,0.05 -112.7983,1.9608 -3.6468,2.2236 -7.2921,8.5999 -7.2866,12.7457 0,1.5344 0.8341,4.1398 1.8489,5.7898 2.7891,4.5348 19.6263,21.953 24.9538,25.8148 5.9475,4.3113 9.1267,5.066 13.9019,3.3003 7.9644,-2.945 15.2689,-4.7482 17.9769,-4.4378 2.8072,0.3218 2.8168,0.3485 3.5389,9.8227 0.3983,5.225 1.1669,12.65 1.7081,16.5 0.9708,6.9067 2.157,17.9672 4.129,38.5 1.8187,18.9361 4.1573,36.3388 5.9128,44 0.5672,2.475 1.4511,6.75 1.9645,9.5 1.07,5.7324 4.8915,24.3023 6.0708,29.5 0.4367,1.925 1.2537,5.525 1.8155,8 0.5617,2.475 1.9203,7.875 3.019,12 1.0987,4.125 3.1837,12 4.6333,17.5 1.4496,5.5 3.5201,12.7 4.6012,16 1.0811,3.3 2.3449,7.35 2.8085,9 4.1537,14.7847 6.7507,22.6993 12.1404,37 2.2802,6.05 4.7818,12.3066 5.5593,13.9036 0.7774,1.597 1.4135,4.017 1.4135,5.3777 0,2.9401 -7.0518,12.8093 -19.0912,26.7187 -11.9854,13.8471 -56.1107,58.5 -57.8087,58.5 -1.4232,0 -1.353,-1.7878 0.7073,-18 1.1559,-9.0961 -0.74,-18.3583 -5.9058,-28.8515 -6.1665,-12.5258 -25.8386,-29.505 -45.9592,-39.6677 -9.3604,-4.7278 -9.3563,-4.719 -6.4117,-14.0622 1.3727,-4.3552 2.9314,-9.4936 3.4639,-11.4186 0.5325,-1.925 1.6839,-5.975 2.5587,-9 0.8748,-3.025 1.9725,-7.75 2.4393,-10.5 0.4668,-2.75 1.8335,-8.375 3.0371,-12.5 1.2037,-4.125 2.5506,-9.3 2.9933,-11.5 0.7747,-3.8503 3.1866,-14.2049 5.0081,-21.5 0.7713,-3.089 3.1969,-13.3885 6.0055,-25.5 0.5102,-2.2 1.6422,-7.375 2.5155,-11.5 0.8734,-4.125 1.9523,-9.075 2.3975,-11 0.4452,-1.925 1.5512,-7.1 2.4577,-11.5 0.9065,-4.4 2.5011,-11.6 3.5435,-16 1.0423,-4.4 2.3591,-10.7 2.926,-14 2.8176,-16.3997 5.5386,-29.163 6.5252,-30.6077 0.6039,-0.8842 4.6047,-4.3923 8.8906,-7.7958 9.1652,-7.2783 11.6985,-10.9473 11.7037,-16.9506 0,-3.9881 -0.484,-4.8312 -5.7988,-10.0318 -6.9655,-6.8157 -31.5748,-25.5141 -38.6465,-29.3639 -5.4562,-2.9704 -8.0436,-3.2966 -13.695,-1.7269 -2.8012,0.7781 -4.813,2.5691 -8.6989,7.7444 -2.7802,3.7028 -6.0121,7.9698 -7.1821,9.4823 l -2.1271,2.75 h -23.317 c -25.3783,0 -25.6018,-0.053 -23.5028,-5.5738 0.5345,-1.406 0.9719,-3.7012 0.9719,-5.1004 0,-2.3675 3.4782,-17.7537 7.9858,-35.3258 1.0581,-4.125 2.4559,-9.975 3.1061,-13 0.6502,-3.025 2.283,-9.2043 3.6283,-13.7318 2.6102,-8.7839 3.8895,-10.2966 14.1155,-16.6906 5.8922,-3.6841 8.5002,-9.4562 7.2635,-16.0759 -0.5099,-2.7293 -1.8866,-5.7417 -3.2426,-7.0951 -3.5141,-3.5073 -18.1377,-11.867 -38.3434,-21.9195 -16.2219,-8.0704 -18.626,-8.9817 -24.5,-9.2864 -6.0133,-0.312 -6.7874,-0.1081 -10.0859,2.6573 -2.8522,2.3913 -3.8277,4.1696 -4.8373,8.8186 -1.9511,8.9838 -2.1729,10.2515 -3.1119,17.7859 -1.8137,14.553 -7.3343,49.0484 -10.9685,68.5375 -0.4616,2.475 -1.362,7.875 -2.0009,12 -1.1064,7.143 -1.6339,9.8335 -4.0677,20.75 -1.3857,6.2153 -2.9672,12.2365 -3.2311,12.3024 -0.1155,0.029 -22.2599,0.289 -49.2099,0.5782 l -49,0.5259 -3.4362,2.7304 c -4.6921,3.7283 -6.743,9.9028 -5.1051,15.3697 1.3297,4.4381 16.0761,20.4411 25.6231,27.8065 5.7796,4.4589 9.9888,5.1807 18.024,3.0907 12.1751,-3.1669 28.8285,-5.1567 43.1442,-5.1551 12.9934,0 12.4281,-0.6355 9.7062,10.9374 -1.5082,6.4122 -2.4849,10.698 -4.4017,19.3139 -1.9855,8.925 -5.2462,22.3534 -6.0098,24.75 -0.4381,1.375 -1.2783,4.75 -1.8671,7.5 -1.0683,4.9895 -5.3421,22.8445 -11.1302,46.5 -3.6545,14.9356 -7.4115,29.1088 -10.0729,38 -6.3633,21.2582 -11.9745,42.063 -11.9745,44.3981 0,5.3208 4.6098,11.2018 10.5,13.3955 1.65,0.6146 7.95,2.4934 14,4.1752 17.9958,5.0025 28.4168,8.295 55.5,17.535 15.6709,5.3464 16,5.5065 16,7.7836 0,2.8017 -12.7535,23.486 -22.9446,37.2126 -8.4614,11.397 -22.6285,27.7614 -34.1207,39.413 -11.3688,11.5264 -30.702,28.0496 -43.4347,37.1216 -4.95,3.5268 -10.9485,7.8881 -13.3301,9.6916 -2.3815,1.8035 -7.3315,5.0355 -11,7.1823 -8.1485,4.7684 -10.2844,6.5866 -13.0296,11.0915 -3.2958,5.4085 -2.7871,9.5868 2.1097,17.3292 4.3459,6.8714 9.5436,10.6708 14.598,10.6708 7.3509,0 42.0571,-17.627 62.652,-31.8205 15.3433,-10.5742 21.9019,-15.2516 24.5484,-17.5074 1.4016,-1.1946 4.5516,-3.7329 7,-5.6406 9.5446,-7.4367 28.0261,-24.391 39.9686,-36.666 14.4476,-14.8498 23.2923,-25.6744 32.7638,-40.0978 3.6955,-5.6278 7.1913,-10.2403 7.7683,-10.25 2.2277,-0.038 19.3854,16.2575 41.4509,39.3668 9.754,10.2154 13.544,12.6155 19.9211,12.6155 8.4511,0 7.8745,1.1955 -5.9211,12.2771 -8.3043,6.6706 -40.82,28.5711 -53.8647,36.2798 -4.6005,2.7187 -14.4594,8.0931 -21.9085,11.9431 -7.5955,3.9256 -14.384,8.135 -15.4568,9.5842 -1.3712,1.8524 -1.9129,4.2402 -1.9129,8.4326 0,5.1734 0.4487,6.4912 3.8871,11.4159 6.5757,9.4183 14.1268,11.8511 23.6925,7.6332 z m -29.6908,-224.1533 c -0.3231,-0.3231 -2.3106,-1.0235 -4.4167,-1.5564 -2.106,-0.5329 -5.1792,-1.3546 -6.8292,-1.8259 -4.5828,-1.3091 -13.1432,-3.6515 -22,-6.0197 -4.4,-1.1765 -8.3909,-2.5236 -8.8687,-2.9935 -0.4903,-0.4823 -0.1521,-3.1764 0.7764,-6.1858 0.9048,-2.9322 2.7949,-10.2813 4.2002,-16.3313 1.4054,-6.05 2.9913,-12.8 3.5244,-15 0.533,-2.2 1.3845,-6.025 1.8921,-8.5 0.5076,-2.475 1.3583,-6.075 1.8904,-8 0.5322,-1.925 2.1435,-8 3.5807,-13.5 1.4373,-5.5 3.031,-11.575 3.5417,-13.5 2.4323,-9.1689 9.5811,-38.2418 10.9421,-44.5 0.4784,-2.2 1.3737,-5.8 1.9895,-8 0.964,-3.4441 3.9065,-16.2012 5.6738,-24.5987 0.3008,-1.4292 1.5537,-5.7042 2.7843,-9.5 l 2.2375,-6.9013 24.8499,-0.2679 c 13.6675,-0.1473 25.2356,0.1178 25.707,0.5892 0.4761,0.4761 0.4013,2.8178 -0.1682,5.2679 -3.4058,14.6529 -5.0299,22.154 -6.0429,27.9108 -0.6291,3.575 -1.5418,8.3 -2.0281,10.5 -0.4864,2.2 -1.3973,6.475 -2.0243,9.5 -0.627,3.025 -1.5072,7.075 -1.9561,9 -1.8291,7.8437 -5.1791,22.7811 -6.0553,27 -1.7295,8.3271 -4.9441,22.4717 -5.9089,26 -1.5197,5.5568 -5.001,19.5399 -6.909,27.75 -0.4793,2.0625 -1.5467,5.775 -2.372,8.25 -0.8252,2.475 -3.4706,11.5822 -5.8785,20.2383 l -4.378,15.7383 -3.5833,0.012 c -1.9709,0.01 -3.8477,-0.2526 -4.1708,-0.5757 z m 240.1474,-34.1817 c -3.6637,-9.5951 -5.9548,-16.1652 -12.6346,-36.2309 -4.1196,-12.375 -7.8542,-23.4 -8.2991,-24.5 -0.4449,-1.1 -1.023,-3.125 -1.2845,-4.5 -0.2616,-1.375 -1.2289,-5.2 -2.1496,-8.5 -0.9206,-3.3 -2.8034,-10.275 -4.184,-15.5 -1.3805,-5.225 -2.9286,-11.075 -3.4402,-13 -3.3466,-12.5916 -6.5585,-30.4334 -9.9013,-55 -2.4807,-18.2308 -3.8374,-27.1873 -5.0481,-33.3263 -0.5236,-2.6544 -0.9519,-7.4919 -0.9519,-10.75 V 1148 h 58.5 c 46.2126,0 58.5,0.2632 58.5,1.2532 0,0.6892 -0.917,4.4017 -2.0379,8.25 -1.1208,3.8482 -2.5162,9.2468 -3.1008,11.9968 -0.5847,2.75 -1.4138,6.575 -1.8425,8.5 -1.265,5.68 -6.7328,25.9376 -9.0421,33.5 -1.1757,3.85 -2.364,7.9 -2.6406,9 -0.2767,1.1 -0.861,2.9 -1.2985,4 -0.4375,1.1 -1.8225,5.6 -3.0778,10 -4.464,15.6473 -11.8417,38.6471 -16.8405,52.5 -1.0915,3.025 -3.8149,10.5625 -6.052,16.75 -2.237,6.1875 -5.816,16.0875 -7.9532,22 -2.1373,5.9125 -5.5123,14.7749 -7.5,19.6943 -1.9878,4.9194 -3.6141,9.4838 -3.6141,10.143 0,0.6593 -0.6894,1.4633 -1.532,1.7866 -1.0382,0.3984 -1.8681,-0.2924 -2.5747,-2.143 z M 277.5,1588.3452 c 6.64065,-1.5856 18.33979,-2.9659 38,-4.4835 7.95157,-0.6138 105.23091,-1.1708 250.5,-1.4344 168.66872,-0.3059 238.80417,-0.7511 242,-1.536 2.475,-0.6078 5.29309,-1.3141 6.26242,-1.5696 2.72628,-0.7183 6.73758,-7.3583 6.73758,-11.1527 0,-1.8517 -0.68871,-4.8181 -1.53047,-6.592 -0.84176,-1.7738 -15.134,-16.7678 -31.76054,-33.3199 -26.6991,-26.5795 -30.63765,-30.1334 -33.71953,-30.4259 -9.19527,-0.8728 -9.10837,-0.9305 -30.58823,20.3018 L 703.30246,1538 h -38.52879 c -29.62909,0 -38.75714,-0.2887 -39.51741,-1.25 -1.50038,-1.897 -1.4096,-125.4867 0.0926,-126.0224 0.63314,-0.2257 15.88876,-0.5109 33.90136,-0.6336 l 32.75019,-0.2232 0.99981,2.6297 c 0.5499,1.4463 0.99981,5.9899 0.99981,10.0967 0,12.939 3.63798,17.3985 14.20034,17.4071 4.62171,0 7.34643,-1.015 21.29966,-7.9634 16.98976,-8.4605 22.54462,-12.2927 25.16565,-17.3612 1.70309,-3.2934 1.80262,-16.3111 0.63597,-83.1797 -0.2303,-13.2 -0.64671,-38.4644 -0.92535,-56.1432 l -0.50664,-32.1432 8.21307,-4.8568 c 9.84778,-5.8235 13.52497,-9.2763 14.8011,-13.8981 1.85937,-6.7341 -0.53299,-10.9378 -11.89234,-20.8963 -2.4703,-2.1656 -10.24546,-9.508 -17.27814,-16.3163 -14.5215,-14.0583 -17.53081,-15.8245 -24.131,-14.1625 -4.86754,1.2256 -5.14786,1.4426 -18.19762,14.0854 l -9.1153,8.831 h -35.56731 c -33.03427,0 -35.5996,-0.1246 -36.02064,-1.75 -0.24933,-0.9625 -0.39216,-22 -0.31739,-46.75 l 0.13594,-45 77.5,-0.203 c 42.625,-0.1116 78.94925,-0.467 80.72056,-0.7898 4.50876,-0.8215 8.67992,-4.6606 10.25759,-9.441 2.58168,-7.8226 1.55275,-9.2862 -25.73286,-36.6056 -13.60991,-13.6268 -26.27059,-25.83 -28.13484,-27.1183 -2.49822,-1.7264 -4.76596,-2.3423 -8.62383,-2.3423 -4.9349,0 -5.59901,0.3214 -11.61046,5.6191 -3.50689,3.0905 -11.10116,10.4685 -16.87616,16.3954 l -10.5,10.7763 -211.16124,0.01 c -116.13869,0 -212.66369,0.3311 -214.5,0.7289 -7.19465,1.5586 -11.92,7.2781 -12.02035,14.5491 -0.0677,4.9079 1.29947,6.7076 17.51107,23.0504 10.01992,10.101 13.23859,12.7591 16.10013,13.2959 3.2927,0.6177 21.77941,-1.8505 24.01472,-3.2063 4.90318,-2.9739 108.72364,-5.4449 111.51564,-2.6541 0.72424,0.724 0.97825,15.3208 0.80046,46 L 423.5,1195.5 l -36.93997,0.2625 -36.93997,0.2625 -16.13708,-7.9141 c -23.62245,-11.5852 -27.45287,-12.6426 -34.19991,-9.4409 -6.66989,3.165 -7.47102,5.7912 -6.9644,22.83 2.24208,75.4079 2.36029,187.1943 0.23433,221.6079 -0.81468,13.1876 -0.76857,13.7362 1.49234,17.759 2.63316,4.6851 4.95476,6.4869 10.23756,7.9455 3.27315,0.9038 4.66843,0.5652 13.43479,-3.2608 20.1003,-8.7724 35.28339,-16.6236 36.89038,-19.0762 0.88402,-1.3492 1.92725,-5.1665 2.31829,-8.4829 0.39103,-3.3164 1.15901,-6.4779 1.70661,-7.0255 0.63056,-0.6305 12.70558,-0.8987 32.93133,-0.7313 L 423.5,1410.5 v 63.5 63.5 L 331,1538 c -87.30969,0.4719 -92.6692,0.6025 -95.51537,2.327 -3.96453,2.4021 -7.59268,8.0597 -8.23377,12.8394 -0.69645,5.1924 1.54743,8.3494 17.06652,24.0114 8.84945,8.9309 13.39264,12.8056 15.37235,13.1103 3.67555,0.5657 10.35578,-0.163 17.81027,-1.9429 z M 486.68657,1537.25 c -2.07965,-3.615 -2.75006,-123.5864 -0.70205,-125.6346 1.26267,-1.2628 72.92263,-1.9089 74.91829,-0.6755 0.85666,0.5295 1.16424,16.8914 1.18233,62.8947 0.0134,34.1985 -0.25178,62.626 -0.58937,63.1722 -0.72316,1.1701 -74.13867,1.4088 -74.8092,0.2432 z M 358.25568,1364.6637 c -0.90111,-1.3876 -1.04712,-10.4169 -1.16954,-72.3226 -0.0513,-25.9375 0.21302,-47.9875 0.58736,-49 0.37434,-1.0126 1.16344,-2.1717 1.75356,-2.5758 0.59012,-0.4041 14.6533,-0.7416 31.25151,-0.75 26.1154,-0.013 30.39015,0.1963 31.75,1.5561 1.39354,1.3936 1.57143,8.3417 1.57143,61.3776 0,46.6452 -0.27507,60.026 -1.25,60.8055 -1.90731,1.5249 -63.53037,2.3936 -64.49432,0.9092 z m 267.11638,0.1142 c -0.53576,-0.7448 -0.90938,-26.9329 -0.89564,-62.7779 l 0.0236,-61.5 32.9361,-0.2639 c 22.0203,-0.1764 33.28422,0.084 33.98648,0.7865 0.70411,0.7041 1.00457,14.4725 0.91139,41.7639 -0.29366,86.0138 -0.13705,80.0377 -2.12535,81.1019 -0.98526,0.5272 -15.76973,1.2307 -32.85436,1.5631 -24.61696,0.479 -31.25373,0.3392 -31.9822,-0.6736 z m -139.78681,-18.9276 c -0.35243,-10.6426 -0.51579,-38.7003 -0.36302,-62.3503 l 0.27777,-43 h 38 38 l 0.25782,60.9422 c 0.17697,41.8311 -0.0738,61.2739 -0.79963,62 -0.69207,0.6923 -13.78586,1.1789 -37.8948,1.4081 l -36.83736,0.3504 z m -0.10782,-150.8868 c -0.8089,-1.3089 -0.93001,-89.8442 -0.124,-90.6503 0.31923,-0.3192 17.20005,-0.7334 37.51293,-0.9204 28.72293,-0.2645 37.1638,-0.061 37.97304,0.9137 0.69306,0.8351 0.9771,16.2712 0.85057,46.2236 L 561.5,1195.5 l -37.68359,0.262 c -25.74551,0.1789 -37.89122,-0.074 -38.33898,-0.7985 z M 944.8,1255.8 c 0.66,-0.66 1.2,-2.0211 1.2,-3.0248 0,-1.0386 1.10509,-2.2449 2.5651,-2.8 3.57532,-1.3593 4.15125,-1.2588 6.55293,1.1428 1.70989,1.7099 2.28504,1.8544 2.98469,0.75 1.39052,-2.1949 1.06025,-3.5209 -1.69161,-6.7913 -3.12783,-3.7172 -4.12854,-3.7901 -8.51323,-0.6202 -1.86883,1.351 -4.86038,3.128 -6.64788,3.9489 -2.77631,1.275 -3.25,2.0101 -3.25,5.0436 0,3.2225 0.259,3.551 2.8,3.551 1.54,0 3.34,-0.54 4,-1.2 z m 562.6073,-308.9456 c 0.5607,-3.50647 0.246,-4.74715 -2.0411,-8.04742 -3.5612,-5.13886 -6.073,-4.81486 -8.0429,1.03748 -1.3321,3.95761 -1.3087,4.51414 0.2622,6.25 0.9485,1.04805 2.5689,1.90554 3.6009,1.90554 1.032,0 2.1354,0.675 2.452,1.5 1.1087,2.8894 3.1082,1.48584 3.7689,-2.6456 z M 402.57261,818.62544 c 6.72944,-1.79204 21.46141,-8.15048 28.92739,-12.48532 3.3,-1.91602 9.24188,-6.61243 13.20418,-10.43647 4.36029,-4.20814 7.76324,-6.73826 8.6204,-6.40934 0.77892,0.2989 2.25105,2.86504 3.2714,5.70253 1.02034,2.83748 3.48454,6.92399 5.47599,9.08111 3.88165,4.20459 6.14616,4.72876 12.81201,2.96558 1.98881,-0.52606 7.66602,-1.91636 12.61602,-3.08955 4.95,-1.1732 11.925,-2.97286 15.5,-3.99925 18.27038,-5.24547 22.46481,-6.50674 34,-10.22379 6.875,-2.21537 13.4,-4.36886 14.5,-4.78553 1.1,-0.41667 6.95,-2.63211 13,-4.9232 19.53601,-7.39813 29.65153,-11.74369 55.82442,-23.98179 l 6.82441,-3.19101 7.67559,6.9295 c 31.69866,28.61746 68.70464,44.41104 124.68851,53.21513 9.16533,1.44135 27.11995,1.95844 36.16229,1.04146 10.02335,-1.01645 17.62952,-4.86973 21.42434,-10.85354 4.33351,-6.83324 3.97347,-11.09177 -1.94147,-22.96371 -7.78886,-15.6331 -9.20107,-23.14755 -9.23103,-49.11879 -0.0121,-10.46831 0.40438,-20.73569 0.92546,-22.81638 0.52108,-2.08069 1.21991,-9.07912 1.55294,-15.55205 0.69914,-13.58848 -0.21773,-17.03477 -5.54232,-20.83237 -3.00054,-2.14005 -4.38892,-2.39282 -12.87728,-2.34452 -14.21961,0.0809 -17.24772,2.44367 -20.4362,15.94586 -0.90915,3.85 -2.92155,12.175 -4.47199,18.5 -1.55044,6.325 -3.37888,14.2 -4.06319,17.5 -0.68432,3.3 -1.59083,7.35 -2.01448,9 -0.42365,1.65 -1.32101,5.7 -1.99414,9 -0.67314,3.3 -1.3857,6.5625 -1.58349,7.25 C 753.63372,752.96745 696.11653,733.30274 683,721.98931 l -3.5,-3.01886 5,-4.53952 c 2.75,-2.49674 8.15,-7.08978 12,-10.20676 9.10635,-7.37254 21.09644,-17.8781 30.57725,-26.79136 9.55367,-8.98177 16.63472,-13.76716 30.08223,-20.32963 12.60023,-6.149 14.38624,-8.50901 13.60143,-17.97279 -0.42743,-5.15424 -0.80243,-5.87006 -4.77347,-9.11203 -12.17942,-9.94329 -16.36103,-13.63271 -16.73856,-14.76836 -0.32577,-0.97993 5.57296,-1.25 27.30177,-1.25 30.17983,0 33.7851,-0.48959 38.52751,-5.232 3.49664,-3.49664 4.45702,-8.06676 2.90579,-13.82759 -0.9912,-3.68104 -3.17857,-6.29346 -13.73942,-16.40923 -6.90829,-6.61715 -18.98718,-18.35982 -26.84198,-26.09481 -9.45805,-9.31381 -15.39954,-14.39774 -17.592,-15.05288 -4.21861,-1.26059 -11.03025,-0.0753 -14.73743,2.56444 l -2.86795,2.04216 -1.14475,-8.74504 c -3.46221,-26.44881 -9.1582,-34.01239 -34.92867,-46.38103 -8.04746,-3.86241 -15.41314,-7.43689 -16.36818,-7.94329 -0.95504,-0.5064 -2.19744,-0.92073 -2.7609,-0.92073 -0.56346,0 -2.93206,-0.85414 -5.26357,-1.8981 -2.3315,-1.04395 -5.7016,-2.5038 -7.4891,-3.24411 -3.81195,-1.57875 -4.12363,-2.61884 -1,-3.33697 1.2375,-0.2845 28.125,-0.63058 59.75,-0.76905 52.84701,-0.2314 57.76223,-0.39507 60.74058,-2.02258 1.78232,-0.97395 3.89708,-2.77395 4.69946,-4 2.34172,-3.57819 2.94014,-9.88474 1.30768,-13.7812 -1.55378,-3.70865 -15.41131,-18.69169 -41.44169,-44.8076 -8.96832,-8.99778 -16.30771,-17.09778 -16.30977,-18 -0.005,-2.38501 -3.06175,-6.99244 -8.09203,-12.19879 -18.10793,-18.74176 -28.04558,-30.13087 -27.50961,-31.52758 0.51546,-1.34328 3.99354,-1.51939 26.84878,-1.35948 14.44113,0.10104 28.0566,-0.15504 30.2566,-0.56907 8.33009,-1.56766 12.31867,-5.20418 12.65608,-11.53897 0.42834,-8.04204 0.18054,-8.48581 -12.40608,-22.21733 C 750.3488,292.10897 739.45428,279.98835 733.43283,273 c -6.5236,-7.57113 -10.09292,-10.56012 -14.06689,-11.77976 -6.98123,-2.1426 -9.99672,-0.36469 -24.66443,14.54192 -7.26083,7.37909 -15.60526,15.40132 -18.54318,17.82718 L 670.81666,298 l -22.34931,0 c -14.51836,0 -22.5765,-0.3676 -22.9977,-1.04911 -0.35662,-0.57701 3.74018,-5.51594 9.10399,-10.9754 9.7849,-9.95938 10.20035,-10.23811 27.32281,-18.33086 5.74541,-2.71551 8.09504,-6.64564 8.09981,-13.54824 0.004,-5.07479 -0.25488,-5.64323 -4.24626,-9.34133 -2.3375,-2.16575 -6.60267,-5.35912 -9.47817,-7.09639 C 653.39634,235.9214 644.63534,230.45 636.80294,225.5 c -18.2418,-11.52864 -21.2128,-12.9433 -27.07816,-12.89344 -8.16147,0.0694 -12.39965,5.02068 -16.6592,19.46225 -2.46271,8.34958 -8.58165,25.26475 -11.09476,30.67029 -1.08395,2.33151 -1.97082,4.46711 -1.97082,4.74577 0,0.27867 -1.50355,3.77108 -3.34121,7.7609 -1.83767,3.98983 -4.61899,10.17923 -6.1807,13.75423 -1.56172,3.575 -3.26752,7.06761 -3.79066,7.76136 -0.74336,0.98577 -9.60703,1.20425 -40.5693,1 L 486.5,297.5 l 0.32802,-3 c 1.34396,-12.2918 1.22149,-21.21301 -0.36025,-26.24179 C 482.82345,256.67197 473.80608,246.65686 459,237.75122 c -12.5596,-7.55441 -36.54908,-18.54641 -48.73985,-22.33263 -6.13377,-1.90503 -12.98618,0.30961 -19.3362,6.24932 -3.86766,3.61774 -4.95799,5.37627 -5.47626,8.83236 -0.96803,6.45529 0.13328,9.59263 5.65076,16.09742 13.43163,15.83512 34.25279,48.71774 32.16799,50.80254 -0.32988,0.32987 -32.36227,0.60145 -71.18311,0.60351 -67.7269,0.004 -70.71017,0.0811 -73.71767,1.91496 -5.79529,3.5338 -7.88414,11.21459 -4.95212,18.20918 0.77745,1.85466 7.44331,9.29661 14.81303,16.53766 10.06936,9.89355 14.1294,13.24865 16.33646,13.5 3.20298,0.36475 10.36965,-0.53269 17.43697,-2.18354 16.8248,-3.9301 43.36264,-5.05385 112,-4.74268 l 57.5,0.26068 0.2931,8.41435 c 0.21097,6.05663 -0.0692,8.6442 -1,9.23468 -0.71121,0.45119 -39.44853,0.82724 -86.08294,0.83566 -81.59026,0.0147 -84.92984,0.0876 -88.5,1.93215 -4.11297,2.12495 -5.61916,4.11586 -6.64408,8.7823 -1.44863,6.59559 0.62076,10.05731 14.32366,23.96091 15.80398,16.03546 16.22135,16.22453 29.81489,13.50657 10.97494,-2.19439 21.16194,-3.83309 29.15779,-4.69039 7.5576,-0.8103 105.03017,-1.64509 107.31756,-0.91911 1.72049,0.54607 1.85959,1.568 1.60205,11.77043 L 491.5,425.5 374.5,426 c -92.47647,0.3952 -117.46944,0.76822 -119.23965,1.77964 -4.83568,2.76292 -6.65704,10.94185 -3.90394,17.53094 1.82598,4.37018 21.85741,25.14438 27.34803,28.3621 4.67349,2.73884 7.9663,2.80029 18.29556,0.34143 7.16571,-1.70578 17.63748,-3.09831 29.5,-3.92289 15.43022,-1.07256 164.71412,-1.30427 166.30967,-0.25813 1.72362,1.13011 -1.07056,2.92003 -10.30967,6.60426 -10.58315,4.22018 -38.49028,13.39101 -47.5,15.60943 -10.07093,2.47972 -27.75967,6.23645 -37.75,8.01735 -2.8875,0.51473 -7.8375,1.41219 -11,1.99436 -3.1625,0.58216 -8.45,1.46243 -11.75,1.95614 -3.3,0.49371 -8.925,1.38713 -12.5,1.98537 -16.60765,2.77914 -39.29653,6.07575 -61.72196,8.96799 -16.45864,2.1227 -20.15322,3.76354 -22.67714,10.07145 -2.50491,6.26039 -2.10542,16.03142 0.89775,21.9579 2.92204,5.76636 4.13454,6.53572 11.50135,7.29793 5.8137,0.60151 35.01385,-0.69413 51,-2.26292 5.225,-0.51275 14.675,-1.37924 21,-1.92554 18.37117,-1.58673 23.1348,-2.12351 29.34418,-3.30658 4.81995,-0.91834 6.00025,-0.86697 6.73469,0.29314 1.37182,2.16691 1.13901,20.28875 -0.27887,21.70663 -0.913,0.913 -20.01731,1.2 -79.87788,1.2 -86.17626,0 -83.52322,-0.17769 -87.83879,5.88297 -2.49376,3.50216 -2.83473,11.79646 -0.65432,15.91669 1.98806,3.75676 25.35858,26.53954 29.31083,28.5737 3.05436,1.57203 3.71273,1.55513 11.5,-0.29526 24.21961,-5.755 31.05808,-6.24496 82.26016,-5.89368 l 46,0.31558 0.27578,15.20102 c 0.32246,17.77389 0.78831,17.0263 -11.49909,18.45368 -4.00218,0.46491 -10.76419,1.29374 -15.02669,1.84183 -4.2625,0.54809 -11.575,1.44788 -16.25,1.99953 -4.675,0.55165 -12.1,1.4283 -16.5,1.94811 -22.58656,2.66836 -27.79695,3.2396 -37,4.05651 -5.5,0.4882 -17.65,1.3988 -27,2.02356 -20.29593,1.35614 -23.19358,2.00194 -27.04763,6.02803 -2.63631,2.75401 -2.95053,3.75835 -2.93523,9.38182 0.0147,5.39729 0.4978,7.0674 3.37916,11.68178 1.84911,2.96127 6.72837,11.00913 10.84281,17.88413 12.77898,21.35297 15.47034,24.98191 20.46123,27.58928 4.72468,2.46828 8.96826,1.74767 15.83181,-2.68846 11.18206,-7.22731 26.03342,-13.41211 47.46785,-19.76784 21.33228,-6.32543 51.92732,-13.56671 53.98478,-12.7772 1.16471,0.44695 1.55399,2.49717 1.68282,8.86284 0.35803,17.69156 -0.38731,35.2819 -1.52706,36.0394 -0.6273,0.41691 -3.39054,0.54751 -6.14054,0.29023 -2.75,-0.25729 -12.875,-0.96656 -22.5,-1.57616 -9.625,-0.6096 -20.23686,-1.5277 -23.58191,-2.04022 C 342.07303,738.41934 335.38259,738 330.55044,738 h -8.78573 l -3.88236,3.88235 L 314,745.76471 v 10.58285 c 0,10.28214 0.0835,10.67789 2.93678,13.92766 2.15284,2.45195 4.88898,3.96233 10.25,5.65812 20.94726,6.62602 42.15208,16.41069 46.63888,21.52088 1.62414,1.84979 3.74111,5.76683 4.70438,8.70452 4.12681,12.58561 10.73289,16.01104 24.04257,12.4667 z m 53.94884,-47.59073 c -0.32811,-0.5309 -0.16633,-5.5934 0.35952,-11.25 0.52585,-5.65659 0.9872,-25.31666 1.02523,-43.68905 0.038,-18.37238 0.20208,-33.53728 0.36457,-33.69976 0.33301,-0.33302 10.06986,-2.79917 29.22923,-7.40319 7.15,-1.71815 14.575,-3.53015 16.5,-4.02665 4.56636,-1.17778 18.8932,-4.37708 26.5,-5.91766 21.39428,-4.33293 24.97345,-8.62905 20.66143,-24.80013 -3.5055,-13.14641 -7.12224,-15.81402 -20.05199,-14.78977 -7.69642,0.60968 -9.82366,0.92634 -29.60944,4.4077 -6.05,1.06451 -14.375,2.47049 -18.5,3.12439 -4.125,0.65391 -9.65965,1.59853 -12.29922,2.09916 -2.63957,0.50064 -6.5923,0.91025 -8.78383,0.91025 h -3.98461 l 0.28383,-10.75 0.28383,-10.75 54.4413,-0.2587 c 29.94271,-0.14229 54.78854,0.0885 55.21295,0.51295 0.42441,0.42441 2.13577,7.51583 3.80302,15.7587 1.66724,8.24288 3.48391,16.67455 4.03704,18.73705 2.38967,8.91056 2.85459,10.50836 4.43738,15.25 0.91797,2.75 2.07371,5.9 2.56831,7 0.4946,1.1 1.55623,4.025 2.35918,6.5 1.88763,5.81841 5.15421,14.06432 8.26994,20.87601 1.36118,2.97583 2.24837,6.00086 1.97154,6.72227 -2.07724,5.4132 -48.86705,31.79208 -76.10066,42.90357 -4.95,2.01963 -12.6,5.13822 -17,6.93019 -4.4,1.79197 -11.6,4.48221 -16,5.97832 -4.4,1.4961 -8.9,3.07846 -10,3.51635 -1.1,0.43789 -3.8,1.36591 -6,2.06227 -2.2,0.69635 -5.77202,2.10871 -7.93783,3.13856 -4.49993,2.13974 -5.21278,2.2468 -6.04072,0.90717 z M 643.71996,660.25 C 638.32605,648.10236 632.55507,627.68128 631.78015,618 L 631.5,614.5 662.25,614.23555 C 688.11233,614.01313 693,614.19433 693,615.37554 693,620.51832 652.69023,666 648.13226,666 c -1.3006,0 -2.62617,-1.72744 -4.4123,-5.75 z M 458.22172,556.2591 458.5,542.5 463,541.79528 c 35.86299,-5.61635 44.96721,-6.71097 73.5,-8.83709 7.7,-0.57377 15.15675,-1.2861 16.57055,-1.58297 2.41104,-0.50627 2.64047,-0.20889 3.69745,4.79251 1.66181,7.86333 3.42761,21.55356 3.58987,27.83227 l 0.14213,5.5 -51.27828,0.2591 -51.27828,0.25909 z M 623.2,568.8 c -0.66,-0.66 -1.2,-2.29562 -1.2,-3.6347 0,-1.33909 -0.43019,-5.18659 -0.95598,-8.55 -1.154,-7.38193 -2.76203,-22.2696 -3.55564,-32.91916 l -0.58154,-7.80387 8.27294,-7.94613 C 629.72991,503.57576 633.84142,500 634.31649,500 c 1.64649,0 25.93709,24.5503 34.62977,35 4.80398,5.775 11.94309,15.30276 15.86469,21.17279 3.9216,5.87003 7.60076,10.96363 8.17593,11.3191 3.32106,2.05253 -2.91764,2.50811 -34.3459,2.50811 -25.29854,0 -34.55437,-0.31339 -35.44098,-1.2 z m -78.96535,-77.65217 c -3.30059,-4.31869 -6.70094,-8.70619 -7.55633,-9.75 -0.8554,-1.04381 -3.1581,-3.85307 -5.11711,-6.24282 -1.95901,-2.38974 -3.31014,-4.75224 -3.0025,-5.25 0.66503,-1.07605 18.45094,-1.19999 20.04769,-0.1397 1.72245,1.14376 4.26201,29.23469 2.64297,29.23469 -0.5575,0 -3.71412,-3.53348 -7.01472,-7.85217 z m 75.23786,-12.50019 c -1.08488,-0.7438 -4.38123,-2.68604 -7.32523,-4.31609 -2.94399,-1.63004 -5.41899,-3.38398 -5.5,-3.89763 -0.20242,-1.28353 21.41756,-1.76908 22.67734,-0.5093 0.66082,0.66082 0.18575,2.52223 -1.41278,5.5355 -2.56861,4.84187 -4.79813,5.68395 -8.43933,3.18752 z m -65.43733,-54.5819 c -1.72256,-3.21864 -1.31456,-18.6435 0.54225,-20.50031 1.41437,-1.41438 9.75301,-1.55097 80.66673,-1.32143 58.39625,0.18902 79.18932,0.55611 79.47158,1.40303 0.48793,1.46403 -16.15838,19.01339 -19.84173,20.91812 -2.33119,1.20551 -13.726,1.43485 -71.28917,1.43485 -66.71479,0 -68.54166,-0.0508 -69.54966,-1.93426 z m -0.0491,-66.6023 c -0.54235,-1.4265 -0.9861,-5.0072 -0.9861,-7.95711 0,-9.3226 -4.34021,-8.68932 57.05781,-8.32523 29.57744,0.17539 54.13134,0.67345 54.56422,1.10678 0.43288,0.43333 -2.90807,4.48333 -7.42435,9 l -8.21141,8.21212 -47.00703,0.27854 -47.00704,0.27855 z M 1106.5,813.94487 c 2.75,-0.51475 7.475,-1.35765 10.5,-1.8731 3.025,-0.51546 7.975,-1.65085 11,-2.5231 3.025,-0.87224 7.075,-2.02278 9,-2.55674 1.925,-0.53397 7.55,-2.1406 12.5,-3.5703 4.95,-1.42969 11.925,-3.42496 15.5,-4.43392 6.5716,-1.85469 19.8215,-6.29118 23.5,-7.86859 1.1,-0.47169 4.25,-1.76235 7,-2.86813 25.9284,-10.42582 45.7409,-20.61578 67.7918,-34.86664 18.4266,-11.90857 29.827,-21.50672 52.9941,-44.61657 9.4296,-9.40635 16.9822,-16.20173 17.2339,-15.50609 0.2464,0.68107 0.6116,16.08831 0.8115,34.23831 0.3753,34.07138 0.8114,38.64133 4.4692,46.8295 4.5232,10.12552 10.6685,15.34242 23.0353,19.55513 13.7008,4.66712 12.5254,4.61819 109.6642,4.56492 81.4531,-0.0447 92.5732,-0.2337 97,-1.64893 6.9327,-2.21635 13.541,-5.17015 18.3293,-8.19287 5.2373,-3.30614 18.3252,-18.27756 21.0551,-24.08513 4.3526,-9.25985 1.8767,-16.38921 -7.6277,-21.96345 -8.1151,-4.75944 -10.9352,-9.8937 -13.2153,-24.05917 -0.6197,-3.85 -1.5575,-9.50209 -2.084,-12.5602 -0.5266,-3.0581 -0.9574,-9.25269 -0.9574,-13.76574 0,-9.47798 -1.4531,-15.06602 -5.0388,-19.3778 -2.4354,-2.92858 -2.9272,-3.07317 -12.0804,-3.55195 -10.9915,-0.57492 -15.9645,0.98948 -17.7248,5.57585 -1.7537,4.56931 -3.1526,12.99971 -3.2321,19.47906 -0.096,7.82743 -2.1943,21.09703 -3.18,20.11134 -0.4091,-0.40914 -0.7439,-2.00606 -0.7439,-3.54871 0,-3.3497 -3.839,-11.73773 -8.0381,-17.56292 -5.7412,-7.96446 -18.0522,-17.10621 -35.3942,-26.28262 -2.7127,-1.43544 -5.102,-3.11933 -5.3096,-3.74198 -0.2075,-0.62265 5.5693,-4.09195 12.8374,-7.70955 18.4673,-9.1918 21.5788,-11.30723 24.0243,-16.33369 2.0247,-4.16165 2.0474,-4.80242 0.9035,-25.5 -0.6454,-11.6771 -1.0272,-31.551 -0.8484,-44.16423 l 0.3251,-22.93314 5.3352,-3.69852 c 8.2805,-5.74026 10.5563,-9.68699 10.28,-17.82806 -0.1355,-3.99138 -3.8953,-7.95525 -19.8652,-20.94331 -10.5754,-8.60079 -12.6393,-10.77149 -7,-7.36205 5.7537,3.47857 20.092,10.75523 25.6334,13.00885 9.7746,3.97527 16.0777,2.28819 19.6607,-5.26234 2.2612,-4.76517 8.3005,-11.53428 11.3528,-12.72483 5.3136,-2.07252 13.3294,-3.82346 17.504,-3.82346 8.9925,0 14.4722,-6.78119 14.5455,-18 0.054,-8.21777 -1.4352,-13.62171 -4.5476,-16.50625 C 1600.8395,451.12188 1590.3333,448 1584.9105,448 c -1.7482,0 -4.8057,-0.41831 -6.7945,-0.92958 -1.9888,-0.51126 -6.316,-1.47533 -9.616,-2.14238 -11.8701,-2.39935 -30.0001,-9.01999 -41.6317,-15.20291 C 1507.5276,419.44441 1485,402.83555 1485,398.85709 c 0,-1.37856 13.1714,-1.89151 54.5,-2.12242 39.686,-0.22174 42.1782,-0.34244 45.2338,-2.19073 5.9215,-3.58174 7.9808,-11.92281 4.5162,-18.29256 -0.9625,-1.76957 -6.7,-8.35433 -12.75,-14.63279 -6.05,-6.27847 -15.0126,-15.76339 -19.9169,-21.0776 -10.1197,-10.96565 -12.5314,-12.53077 -19.5523,-12.68894 -6.0097,-0.1354 -7.018,0.56306 -22.4694,15.56489 l -10.9386,10.62032 -22.0614,-0.26863 c -21.6368,-0.26346 -22.0672,-0.30954 -22.3647,-2.39436 -0.2261,-1.58486 1.0461,-3.10284 5,-5.966 2.9168,-2.11215 6.2747,-4.93445 7.4619,-6.27177 2.6206,-2.95196 3.8021,-9.79469 2.3504,-13.61293 -0.5857,-1.54052 -0.7899,-3.07604 -0.4537,-3.41226 0.3361,-0.33622 23.4112,-0.68054 51.2779,-0.76515 27.8668,-0.0846 54.4128,-0.46531 58.9913,-0.84598 7.2765,-0.605 8.7481,-1.06403 11.689,-3.64614 4.381,-3.84662 5.8489,-8.28616 4.5908,-13.88525 -0.7836,-3.4875 -2.723,-6.09105 -10.3401,-13.88072 -5.1566,-5.27344 -12.9427,-13.41307 -17.3025,-18.08807 -4.3597,-4.675 -11.6062,-12.2125 -16.1033,-16.75 -8.1177,-8.19062 -8.2133,-8.25 -13.2873,-8.25 -6.8166,0 -9.9029,2.12473 -23.9408,16.48224 -6.2533,6.39568 -12.4339,12.32582 -13.7346,13.17808 -2.0726,1.358 -9.9676,1.54512 -63.8641,1.51365 -33.8246,-0.0197 -61.919,-0.29534 -62.432,-0.61242 -0.5131,-0.31708 -0.9013,-4.58828 -0.8628,-9.49157 0.042,-5.35466 -0.4709,-10.24394 -1.2844,-12.24252 -3.8312,-9.41205 -12.1292,-18.91656 -21.1107,-24.18008 -6.3708,-3.73354 -21.7747,-9.86903 -33.984,-13.53608 -5.6967,-1.71101 -11.7396,-3.56101 -13.4287,-4.11112 -4.8692,-1.58582 -10.35,-1.17253 -14.3634,1.0831 -4.3553,2.44779 -9.618,10.01368 -10.5976,15.23554 -1.4509,7.73389 -0.1815,10.05072 12.347,22.53631 10.9573,10.91964 19.9331,23.12539 18.5964,25.28821 -0.2799,0.45292 -39.662,0.82584 -87.5158,0.82873 l -87.0069,0.005 -4.6943,-2.42391 c -2.5819,-1.33315 -6.7791,-3.91554 -9.3272,-5.73865 -22.4701,-16.07747 -26.965,-18.24888 -33.0143,-15.94891 -3.2484,1.23501 -7.6937,5.58512 -8.8705,8.68057 -0.5105,1.34263 -0.4941,17.19691 0.039,37.63673 1.7653,67.70175 1.9584,81.73493 2.0201,146.81264 0.058,61.23185 -0.3489,75.48543 -3.1123,109.00422 -1.5242,18.48696 -4.4226,42.09964 -5.8919,48 -0.4794,1.925 -1.3886,6.65 -2.0205,10.5 -1.9744,12.02939 -5.7444,28.87229 -9.1772,41 -1.0897,3.85 -2.3935,8.575 -2.8972,10.5 -0.5037,1.925 -2.0861,7.1 -3.5164,11.5 -1.4303,4.4 -2.964,9.35 -3.4082,11 -1.242,4.61378 -12.447,33.44783 -15.7843,40.61808 -7.9012,16.97602 -15.1058,31.11991 -19.5452,38.37066 -9.8906,16.15439 -10.2776,17.82028 -5.9759,25.72394 2.837,5.21257 8.1487,9.55968 14.426,11.80621 3.3771,1.20864 3.9731,1.10589 8.303,-1.43164 7.1376,-4.18287 23.6507,-25.33846 42.811,-54.84686 11.454,-17.64003 25.7332,-44.39689 33.2156,-62.24039 2.0756,-4.95 4.3637,-10.35 5.0846,-12 0.7209,-1.65 2.3005,-6.15 3.5103,-10 1.2098,-3.85 2.5449,-7.9 2.967,-9 2.2095,-5.7583 10.096,-36.02294 11.8567,-45.5 1.9017,-10.23628 4.6666,-27.84779 6.0441,-38.5 1.0289,-7.95573 1.2247,-9.97798 3.0021,-31 1.4859,-17.57532 1.9153,-19.2823 5.548,-22.05306 1.7644,-1.34582 3.5164,-2.44694 3.8932,-2.44694 0.3768,0 6.0585,-3.6 12.6261,-8 6.5676,-4.4 12.3421,-8 12.8322,-8 2.0482,0 3.3541,90.75138 2.1248,147.65964 -0.4377,20.26442 -0.3686,21.27981 1.6315,24 2.5467,3.46362 7.8312,6.22766 12.0301,6.29233 3.0995,0.0477 12.2035,-2.86033 30.3814,-9.70465 10.0314,-3.77701 17,-9.23472 17,-13.31418 0,-3.6109 4.0918,-4.12566 26.75,-3.36526 12.657,0.42476 21.25,1.10761 21.25,1.68865 0,3.39119 -18.683,25.41084 -32.6645,38.49813 -17.0153,15.92703 -29.4972,25.29833 -51.953,39.00586 -9.8181,5.99322 -39.7709,21.24271 -48.3825,24.63239 -2.475,0.97421 -5.85,2.36061 -7.5,3.08089 -6.6331,2.89558 -17.4795,6.88843 -26,9.57129 -9.9866,3.14449 -23.9149,7.80418 -27,9.03275 -1.1,0.43805 -3.125,1.10336 -4.5,1.47846 -5.3686,1.46457 -10.7937,4.47985 -12.3594,6.86946 -1.9603,2.99182 -2.1878,12.01587 -0.4491,17.81891 0.6602,2.20374 2.9604,5.71073 5.1591,7.86602 3.6791,3.60648 4.3742,3.88498 9.5585,3.8297 3.075,-0.0328 7.8409,-0.48077 10.5909,-0.99552 z m 338.066,-68.83804 c -0.5465,-0.88427 7.3535,-5.10683 9.5544,-5.10683 0.6282,0 5.2456,-1.35491 10.2609,-3.01091 20.9477,-6.91675 25.2214,-7.81491 27.2992,-5.73718 2.0277,2.02775 4.2843,8.3176 4.3044,11.99809 L 1496,746 h -25.441 c -13.9925,0 -25.6894,-0.40193 -25.993,-0.89317 z M 1449,699.959 c -1.2227,-0.8128 -0.1344,-2.28772 5.8869,-7.97807 4.0627,-3.83951 7.6926,-6.98093 8.0663,-6.98093 1.2523,0 9.1646,13.28323 8.3504,14.01868 -1.3513,1.22068 -20.6574,2.03463 -22.3036,0.94032 z m -56.5287,-5.209 c -0.2563,-0.6875 -0.3547,-10.7 -0.2187,-22.25 l 0.2474,-21 12.5,-0.13194 c 14.3401,-0.15136 19,0.35589 19,2.06823 0,5.00851 -14.5394,27.94255 -23.077,36.4011 -6.3997,6.34039 -7.6488,7.06647 -8.4517,4.91261 z m -147.4915,-88.78777 c -0.5998,-1.12078 -0.8103,-2.92078 -0.4678,-4 0.6029,-1.89959 1.722,-1.96223 35.0554,-1.96223 H 1314 v 2.34501 c 0,1.28976 -0.8229,3.08976 -1.8287,4 -1.6218,1.46772 -5.4652,1.65499 -33.9649,1.65499 -31.3111,0 -32.164,-0.0523 -33.2266,-2.03777 z m 131.5384,1.06714 c -0.33,-0.53385 0.1074,-2.33847 0.9719,-4.01028 l 1.5719,-3.03964 44.719,0.26028 44.719,0.26027 0.3301,2.89149 c 0.1875,1.64233 -0.2446,3.25577 -1,3.73469 -1.9061,1.20836 -90.5634,1.11436 -91.3119,-0.0968 z M 1244.4448,554.8262 c -1.4682,-4.62595 0.1967,-4.8262 40.1239,-4.8262 39.842,0 40.492,0.0826 38.9465,4.95201 C 1322.8748,556.96972 1322.2905,557 1284,557 h -38.8652 z m 141.869,0.54924 c -0.3476,-0.906 -0.1739,-2.37362 0.386,-3.26136 0.9093,-1.44145 5.2847,-1.61408 40.9092,-1.61408 h 39.891 v 3 3 l -40.277,0.26137 c -36.6282,0.23769 -40.3343,0.11213 -40.9092,-1.38593 z m -3.8322,-49.40524 c -0.3501,-0.56638 0.7419,-2.59964 2.4265,-4.51833 3.7113,-4.22693 4.5229,-7.09189 3.6528,-12.89411 -0.8006,-5.33926 -5.3821,-9.9243 -14.5313,-14.54283 -3.3163,-1.67404 -6.0296,-3.40571 -6.0296,-3.84814 0,-0.86121 27.6269,-19.70265 30.5143,-20.81067 1.6104,-0.61796 1.6843,0.66245 1.1108,19.24093 -0.7789,25.22697 -1.5741,35.5735 -2.8557,37.15295 -1.2373,1.52483 -13.366,1.71176 -14.2878,0.2202 z m 73.2684,0.34047 c -2.365,-0.61804 -2.2054,-1.53426 0.7515,-4.3121 3.3576,-3.15431 4.2787,-7.04283 3.9169,-16.53671 -1.2568,-32.98355 -1.3467,-40.60313 -0.4751,-40.29745 0.5263,0.18458 4.6934,4.58798 9.2603,9.78535 4.5669,5.19737 13.4369,13.97237 19.7112,19.5 l 11.4077,10.05024 -4.7578,0.68091 c -6.3335,0.90642 -11.4909,4.66337 -18.3731,13.38405 -4.6324,5.86996 -6.3429,7.3238 -9.1916,7.81254 -3.883,0.66619 -9.5636,0.6352 -12.25,-0.0668 z M 1207.5,495.97246 c -4.4,-2.13087 -9.2109,-3.89638 -10.691,-3.92338 -4.0172,-0.0733 -4.2295,-1.6207 -0.5708,-4.15929 3.6308,-2.51917 13.3874,-10.64617 18.7618,-15.62805 1.925,-1.78442 3.9043,-3.2483 4.3984,-3.25307 1.0099,-0.01 0.1771,26.47017 -0.9197,29.24133 -0.9357,2.36413 -1.7376,2.19778 -10.9787,-2.27754 z m 73.1702,-24.63562 C 1279.587,470.25362 1279.876,440 1280.9695,440 c 1.0843,0 9.9351,12.95452 11.8178,17.29705 2.325,5.36259 1.7107,6.2669 -8.8671,13.05454 -1.4189,0.91048 -2.8814,1.35385 -3.25,0.98525 z M 1147.5923,465.25 c -1.7703,-5.71101 -1.3357,-65.42915 0.4978,-68.39582 0.5727,-0.92661 1.5433,-0.4315 3.5971,1.83491 1.547,1.70716 3.7957,3.6005 4.9971,4.20742 3.3031,1.66873 12.8199,1.32904 22.3157,-0.79652 11.8222,-2.64632 20.1254,-4.09999 23.4186,-4.09999 2.5138,0 2.7319,0.26415 2.146,2.59883 -1.7493,6.96976 -25.2504,37.19685 -42.4905,54.65117 -6.3831,6.4625 -12.1308,11.75 -12.7725,11.75 -0.6418,0 -1.4109,-0.7875 -1.7093,-1.75 z m 192.7814,-37 c -3.6801,-11.42769 -6.0014,-14.55147 -19.373,-26.07027 -1.9246,-1.65794 -3.1259,-3.38913 -2.6696,-3.84709 0.4564,-0.45795 6.6987,-0.982 13.8718,-1.16454 l 13.0419,-0.3319 5.4612,3.76126 c 5.0996,3.51222 5.9192,3.75277 12.3776,3.63301 4.6559,-0.0863 6.9164,0.25107 6.9164,1.03232 0,2.06927 -25.8808,24.73721 -28.2434,24.73721 -0.4506,0 -1.073,-0.7875 -1.3829,-1.75 z m -194.0506,-75.85053 c -1.0206,-2.65948 0.4113,-28.53378 1.6475,-29.7708 0.7949,-0.79549 11.519,-1.12867 36.3286,-1.12867 H 1219.5 l 0.5348,14 c 0.2942,7.7 0.1929,15.0125 -0.2252,16.25 l -0.7601,2.25 h -36.0561 c -32.134,0 -36.123,-0.17411 -36.6703,-1.60053 z m 180.8295,-7.41271 c -12.8097,-13.88999 -18.2445,-15.63575 -27.6496,-8.88152 -2.4748,1.77728 -4.7177,3.01336 -4.9842,2.74686 -0.2665,-0.26651 -0.028,-2.02976 0.5298,-3.91833 0.558,-1.88857 0.7429,-5.49948 0.411,-8.02424 l -0.6034,-4.59048 15.8219,-0.65619 c 22.3066,-0.92514 86.5651,-0.7952 88.0989,0.17815 0.9661,0.61311 1.2095,4.56515 1,16.23468 L 1399.5,353.5 l -32.0051,0.26353 -32.0052,0.26353 z"
     id="path1" />
</svg>
